<?xml version="1.0" encoding="UTF-8" standalone="no"?>
<svg
   xmlns:dc="http://purl.org/dc/elements/1.1/"
   xmlns:cc="http://creativecommons.org/ns#"
   xmlns:rdf="http://www.w3.org/1999/02/22-rdf-syntax-ns#"
   xmlns:svg="http://www.w3.org/2000/svg"
   xmlns="http://www.w3.org/2000/svg"
   xmlns:sodipodi="http://sodipodi.sourceforge.net/DTD/sodipodi-0.dtd"
   xmlns:inkscape="http://www.inkscape.org/namespaces/inkscape"
   width="500"
   version="1.2"
   height="500"
   viewBox="0 0 1562.4982 1562.5026"
   id="svg3527"
   sodipodi:docname="area.svg"
   inkscape:version="0.92.4 (5da689c313, 2019-01-14)">
  <sodipodi:namedview
     pagecolor="#ffffff"
     bordercolor="#666666"
     borderopacity="1"
     objecttolerance="10"
     gridtolerance="10"
     guidetolerance="10"
     inkscape:pageopacity="0"
     inkscape:pageshadow="2"
     inkscape:window-width="3000"
     inkscape:window-height="1890"
     id="namedview3529"
     showgrid="false"
     fit-margin-left="2"
     fit-margin-top="2"
     fit-margin-right="2"
     fit-margin-bottom="2"
     inkscape:zoom="0.93910829"
     inkscape:cx="314.82124"
     inkscape:cy="115.58901"
     inkscape:window-x="-12"
     inkscape:window-y="-12"
     inkscape:window-maximized="1"
     inkscape:current-layer="svg3527"
     units="px" />
  <defs
     id="defs2" />
  <metadata
     id="qgismetadata">
    <rdf:RDF>
      <cc:Work>
        <dc:format>image/svg+xml</dc:format>
        <dc:title></dc:title>
        <dc:date>2019-03-16T17:12:57</dc:date>
        <dc:identifier />
        <dc:description />
        <dc:creator>
          <cc:Agent>
            <dc:title>David Ingram</dc:title>
          </cc:Agent>
        </dc:creator>
        <dc:publisher>
          <cc:Agent>
            <dc:title>QGIS 3.6.0-Noosa</dc:title>
          </cc:Agent>
        </dc:publisher>
        <dc:subject>
          <rdf:Bag />
        </dc:subject>
        <dc:type
           rdf:resource="http://purl.org/dc/dcmitype/StillImage" />
      </cc:Work>
    </rdf:RDF>
  </metadata>
  <path
     style="fill:#000000;stroke-width:1"
     d="m 395.8248,1555.2802 c -10.51972,-3.8679 -28.21159,-14.9144 -39.31481,-24.5474 -13.47109,-11.6871 -39.98889,-15.5113 -79.69583,-11.4933 -45.09431,4.5627 -59.50797,1.744 -59.50797,-11.6374 0,-9.7122 -6.77675,-19.9173 -15.05918,-22.6781 -20.42738,-6.809 30.1253,-110.4242 73.76453,-151.1925 18.13745,-16.9439 41.1865,-46.5869 51.22024,-65.8734 10.03334,-19.2861 25.70213,-35.0658 34.81941,-35.0658 9.11729,0 30.05349,-14.3452 46.52491,-31.8783 16.47141,-17.5331 37.16442,-31.8782 45.98424,-31.8782 8.81982,0 28.05205,-16.875 42.73828,-37.4999 14.68623,-20.6253 38.49423,-41.2428 52.90749,-45.8173 32.04554,-10.1709 101.5489,-116.26373 92.1729,-140.69686 -4.0551,-10.56705 6.1011,-23.53747 25.268,-32.27037 31.9129,-14.54057 46.4555,-44.38105 46.7869,-96.00362 0.2652,-41.151 32.7886,-63.21544 57.1996,-38.80476 10.7152,10.71558 19.4824,31.02994 19.4824,45.14369 0,41.35297 20.1756,42.37389 62.1696,3.14559 33.8181,-31.59059 41.4224,-34.06862 54.8608,-17.8759 12.6966,15.2983 10.3675,22.74628 -12.5081,40.00155 -27.8954,21.04148 -27.9149,21.32507 -2.5597,37.15953 30.2457,18.88865 33.5562,41.24321 6.108,41.24321 -10.6935,0 -24.6849,13.78772 -31.0919,30.63943 -6.4071,16.85171 -17.9747,34.54889 -25.7054,39.32705 -7.7312,4.77816 -10.6622,19.38236 -6.5136,32.45396 5.5751,17.565 -2.6082,29.0159 -31.3596,43.8841 -43.494,22.4917 -49.3188,50.5747 -17.7286,85.481 25.9343,28.6572 15.435,42.8334 -18.3374,24.7588 -18.9217,-10.1264 -36.4659,-7.377 -73.5397,11.5239 -57.5967,29.3647 -69.1051,44.8495 -69.3663,93.333 -0.1061,19.9336 -11.6716,50.8322 -25.69801,68.664 -14.02643,17.8318 -25.5026,44.9988 -25.5026,60.3714 0,15.3721 -24.61919,54.7649 -54.7094,87.5392 -51.97715,56.6141 -78.19301,67.3166 -123.8092,50.5437 z m 612.0636,-672.70065 c 0,-10.76659 -8.60719,-19.5758 -19.12699,-19.5758 -21.4079,0 -25.7262,-19.91896 -6.8481,-31.5865 21.10679,-13.04427 38.06619,-96.0028 26.07469,-127.5432 -10.93879,-28.7706 -76.24419,-70.39411 -110.44509,-70.39411 -9.7762,0 -17.1679,-13.62042 -17.1679,-31.63505 0,-22.96947 8.5897,-33.79114 31.3551,-39.50536 46.773,-11.73895 57.8097,-32.33403 66.3521,-123.81328 8.73,-93.486 -8.5138,-141.81975 -100.5651,-281.8784 -81.4341,-123.904682 -107.8972,-183.740742 -64.0866,-144.906142 12.2734,10.8792 45.0249,30.41742 72.7819,43.41804 41.5566,19.46481 54.4924,34.89408 73.2684,87.394352 12.5411,35.06627 22.825,79.1164 22.8536,97.88877 0.041,25.52667 10.19,39.19035 40.26429,54.19322 51.4014,25.64256 50.6388,25.91064 35.9795,-12.64725 -6.84,-17.98973 -12.0103,-48.11463 -11.4905,-66.94452 0.8736,-31.60691 2.7592,-30.31953 24.5572,16.76928 12.9863,28.05286 24.0369,74.47086 24.5572,103.15169 0.7801,43.039 6.6176,54.73062 33.4239,66.94412 17.8628,8.13921 40.8931,14.79804 51.1782,14.79804 10.2851,0 29.5047,6.74778 42.7105,14.99512 20.0463,12.51912 30.7055,9.36129 64.562,-19.12695 43.2789,-36.41731 76.8485,-44.32311 76.8485,-18.09869 0,36.84045 -24.824,98.06015 -49.9512,123.18735 -19.5877,19.58763 -24.9138,36.46709 -19.5065,61.81708 6.7735,31.75297 5.8097,32.8759 -10.7751,12.55707 -39.2528,-48.09178 -107.0399,-1.94105 -92.745,63.14239 6.7286,30.63535 -0.065,43.92649 -44.39,86.92796 -28.7833,27.91943 -60.0217,68.94965 -69.4189,91.17812 -19.6501,46.48042 -70.2501,81.98535 -70.2501,49.29265 z"
     id="path2550"
     inkscape:connector-curvature="0"
     sodipodi:nodetypes="cccscccsssccccccsccccsscccccccssccssccsscccccccccccccsccsscccccs" />
</svg>
