<?xml version="1.0" encoding="UTF-8" standalone="no"?>
<svg
   xmlns:dc="http://purl.org/dc/elements/1.1/"
   xmlns:cc="http://creativecommons.org/ns#"
   xmlns:rdf="http://www.w3.org/1999/02/22-rdf-syntax-ns#"
   xmlns:svg="http://www.w3.org/2000/svg"
   xmlns="http://www.w3.org/2000/svg"
   xmlns:sodipodi="http://sodipodi.sourceforge.net/DTD/sodipodi-0.dtd"
   xmlns:inkscape="http://www.inkscape.org/namespaces/inkscape"
   width="500"
   version="1.2"
   height="500"
   viewBox="0 0 1562.4982 1562.5026"
   id="svg3527"
   sodipodi:docname="cluster.svg"
   inkscape:version="0.92.4 (5da689c313, 2019-01-14)">
  <sodipodi:namedview
     pagecolor="#ffffff"
     bordercolor="#666666"
     borderopacity="1"
     objecttolerance="10"
     gridtolerance="10"
     guidetolerance="10"
     inkscape:pageopacity="0"
     inkscape:pageshadow="2"
     inkscape:window-width="3000"
     inkscape:window-height="1890"
     id="namedview3529"
     showgrid="false"
     fit-margin-left="2"
     fit-margin-top="2"
     fit-margin-right="2"
     fit-margin-bottom="2"
     inkscape:zoom="0.93910829"
     inkscape:cx="55.000299"
     inkscape:cy="115.58901"
     inkscape:window-x="-12"
     inkscape:window-y="-12"
     inkscape:window-maximized="1"
     inkscape:current-layer="svg3527"
     units="px" />
  <defs
     id="defs2" />
  <metadata
     id="qgismetadata">
    <rdf:RDF>
      <cc:Work>
        <dc:format>image/svg+xml</dc:format>
        <dc:title></dc:title>
        <dc:date>2019-03-16T17:12:57</dc:date>
        <dc:identifier />
        <dc:description />
        <dc:creator>
          <cc:Agent>
            <dc:title>David Ingram</dc:title>
          </cc:Agent>
        </dc:creator>
        <dc:publisher>
          <cc:Agent>
            <dc:title>QGIS 3.6.0-Noosa</dc:title>
          </cc:Agent>
        </dc:publisher>
        <dc:subject>
          <rdf:Bag />
        </dc:subject>
        <dc:type
           rdf:resource="http://purl.org/dc/dcmitype/StillImage" />
      </cc:Work>
    </rdf:RDF>
  </metadata>
  <path
     style="fill:#333333;stroke-width:1"
     d="m 561.60609,1279.4551 20.74622,-31.191 29.70558,19.7583 29.70559,19.7583 -20.74622,31.1909 -20.74619,31.1909 -29.70558,-19.7583 -29.70559,-19.7583 z"
     id="path899" />
  <path
     style="fill:#333333;stroke-width:1"
     d="m 469.50518,1205.341 20.74619,-31.1908 29.70559,19.7583 29.70558,19.7583 -20.74619,31.1908 -20.74618,31.1909 -29.70559,-19.7583 -29.70558,-19.7583 z"
     id="path897" />
  <path
     style="fill:#333333;stroke-width:1"
     d="m 937.34086,1490.8073 20.74618,-31.1909 30.44823,20.2522 30.44823,20.2523 -20.7462,31.1908 -20.74618,31.1909 -30.44823,-20.2523 -30.44822,-20.2522 z"
     id="path895" />
  <path
     style="fill:#333333;stroke-width:1"
     d="m 703.58944,1328.3529 c 0.29872,-1.3325 9.60351,-15.6505 20.6773,-31.8177 l 20.13429,-29.3951 30.37401,19.6227 30.37406,19.6229 -21.41466,31.3263 -21.41462,31.3263 -29.63674,-19.1314 c -23.22228,-14.9907 -29.51931,-19.6556 -29.09364,-21.554 z"
     id="path893" />
  <path
     style="fill:#333333;stroke-width:1"
     d="m 648.08222,1200.9778 21.26104,-31.9649 29.73515,19.7779 29.73509,19.778 -21.39404,31.2955 -21.394,31.2956 -29.6021,-19.1086 -29.60218,-19.1086 z"
     id="path891" />
  <path
     style="fill:#333333;stroke-width:1"
     d="m 564.86571,1107.0646 21.26104,-31.9648 29.7351,19.7779 29.73514,19.7779 -21.39404,31.2956 -21.394,31.2955 -29.60218,-19.1085 -29.60211,-19.1086 z"
     id="path889" />
  <path
     style="fill:#666666;stroke-width:1"
     d="m 41.237009,743.425 c -0.18797,-0.9348 8.9199,-15.6241 20.23976,-32.6429 l 20.58151,-30.9433 30.477791,20.2719 30.47778,20.2719 -21.394,31.2955 -21.39404,31.2956 -29.323551,-18.9246 C 54.774379,753.6405 41.424999,744.3597 41.237009,743.425 Z"
     id="path887" />
  <path
     style="fill:#333333;stroke-width:1"
     d="m 713.34633,1141.508 21.24015,-31.9335 29.70559,19.7583 29.70558,19.7583 -21.24015,31.9335 -21.24014,31.9335 -29.70558,-19.7583 -29.70559,-19.7583 z"
     id="path885" />
  <path
     style="fill:#333333;stroke-width:1"
     d="m 769.75919,1209.5442 c 0.29876,-1.3325 9.60354,-15.6505 20.67735,-31.8177 l 20.13423,-29.3952 30.37401,19.6228 30.37406,19.6228 -21.41465,31.3264 -21.41466,31.3263 -29.63666,-19.1314 c -23.22234,-14.9907 -29.51932,-19.6556 -29.09368,-21.554 z"
     id="path883" />
  <path
     style="fill:#333333;stroke-width:1"
     d="m 673.65253,1033.6958 21.24014,-31.9334 29.70558,19.7582 29.70559,19.7583 -21.24015,31.9335 -21.24014,31.9335 -29.70558,-19.7582 -29.70559,-19.7583 z"
     id="path881" />
  <path
     style="fill:#333333;stroke-width:1"
     d="m 805.29729,1074.1254 21.24018,-31.9336 29.70558,19.7583 29.70559,19.7582 -21.24017,31.9336 -21.24015,31.9335 -29.70559,-19.7583 -29.70558,-19.7583 z"
     id="path879" />
  <path
     style="fill:#333333;stroke-width:1"
     d="m 359.67259,739.1612 21.28105,-31.995 29.80951,20.4073 29.80944,20.4073 -20.74619,31.1909 -20.74619,31.1909 -30.3443,-19.6032 -30.34437,-19.6032 z"
     id="path877" />
  <path
     style="fill:#b3b3b3;stroke-width:1"
     d="m 1282.4887,1075.3379 21.2811,-31.995 29.8095,20.4073 29.8094,20.4073 -20.7462,31.1909 -20.7462,31.1909 -30.3442,-19.6032 -30.3444,-19.6032 z"
     id="path875" />
  <path
     style="fill:#333333;stroke-width:1"
     d="m 753.6258,868.3666 21.24013,-31.9335 29.70559,19.7583 29.70558,19.7582 -21.24013,31.9335 -21.24014,31.9336 -29.70559,-19.7583 -29.70558,-19.7583 z"
     id="path873" />
  <path
     style="fill:#b3b3b3;stroke-width:1"
     d="m 1133.9193,848.5119 21.394,-31.2956 30.3443,19.6032 30.3444,19.6032 -21.2606,31.9642 -21.2607,31.9643 -30.4777,-20.2719 -30.4778,-20.2719 z"
     id="path871" />
  <path
     style="fill:#666666;stroke-width:1"
     d="m 290.17711,432.1028 21.39401,-31.2955 11.76506,7.2005 11.76504,7.2005 17.89962,-26.0322 17.89966,-26.0323 29.70558,19.7583 29.70558,19.7583 -20.59229,31.8288 -20.59227,31.8288 -11.91178,-7.9229 -11.91178,-7.923 -17.78245,26.735 -17.78244,26.7351 -30.4778,-20.2719 -30.47778,-20.2719 z"
     id="path869" />
  <path
     style="fill:#666666;stroke-width:1"
     d="m 214.28692,385.8498 c 0.29387,-1.3107 9.59468,-15.6109 20.66851,-31.7782 l 20.1342,-29.395 30.34433,19.6031 30.34434,19.6032 -21.26059,31.9643 -21.26061,31.9642 -29.75221,-19.7893 c -22.78181,-15.153 -29.62705,-20.3475 -29.21797,-22.1723 z"
     id="path867" />
  <path
     style="fill:#666666;stroke-width:1"
     d="m 453.88198,488.0095 9.8996,-14.8836 -14.88233,-9.8988 -14.88233,-9.8987 21.39404,-31.2956 21.39401,-31.2955 29.70558,19.7582 29.70559,19.7583 -9.17234,14.7107 -9.1723,14.7106 14.14599,10.0213 14.14596,10.0213 -20.74619,31.1908 -20.74619,31.1909 -30.34433,-19.6032 -30.34434,-19.6032 z"
     id="path865" />
  <path
     style="fill:#666666;stroke-width:1"
     d="m 171.64987,301.7885 c 0.2938,-1.3107 9.59463,-15.6109 20.66844,-31.7782 l 20.13422,-29.3951 30.34435,19.6032 30.34437,19.6032 -21.2606,31.9643 -21.26063,31.9643 -29.75221,-19.7893 C 178.086,308.8079 171.2408,303.6132 171.64987,301.7885 Z"
     id="path863" />
  <path
     style="fill:#b3b3b3;stroke-width:1"
     d="m 1287.23,791.9485 21.394,-31.2955 29.7056,19.7583 29.7056,19.7583 -20.5923,31.8288 -20.5924,31.8287 -30.5073,-20.2914 -30.5073,-20.2916 z"
     id="path861" />
  <path
     style="fill:#b3b3b3;stroke-width:1"
     d="m 741.47087,603.1967 21.24018,-31.9336 29.7056,19.7583 29.70559,19.7583 -21.24018,31.9335 -21.24014,31.9335 -29.70559,-19.7582 -29.7056,-19.7583 z"
     id="path859" />
  <path
     style="fill:#b3b3b3;stroke-width:1"
     d="m 1376.3058,812.6334 21.3941,-31.2956 29.7055,19.7583 29.7056,19.7583 -20.5923,31.8287 -20.5923,31.8289 -30.5073,-20.2916 -30.5073,-20.2915 z"
     id="path857" />
  <path
     style="fill:#666666;stroke-width:1"
     d="m 307.80958,263.8712 21.39404,-31.29562 29.70558,19.75832 29.70559,19.7582 -20.59232,31.8289 -20.59229,31.8287 -30.50731,-20.2915 -30.5073,-20.2915 z"
     id="path855" />
  <path
     style="fill:#666666;stroke-width:1"
     d="m 391.96632,311.2774 21.39404,-31.2956 29.70559,19.7583 29.70558,19.7583 -20.59232,31.8288 -20.59229,31.8288 -30.5073,-20.2915 -30.50731,-20.2916 z"
     id="path853" />
  <path
     style="fill:#b3b3b3;stroke-width:1"
     d="m 1227.7234,662.3887 21.394,-31.2956 29.7056,19.7582 29.7056,19.7583 -20.5924,31.8288 -20.5923,31.8289 -30.5073,-20.2915 -30.5073,-20.2916 z"
     id="path851" />
  <path
     style="fill:#666666;stroke-width:1"
     d="m 528.54387,337.8488 21.39404,-31.2956 29.70559,19.7583 29.70557,19.7583 -20.59231,31.8288 -20.59233,31.8288 -30.5073,-20.2915 -30.5073,-20.2915 z"
     id="path849" />
  <path
     style="fill:#b3b3b3;stroke-width:1"
     d="m 1387.0979,725.547 21.3941,-31.2956 29.7055,19.7583 29.7056,19.7582 -20.5923,31.8289 -20.5924,31.8288 -30.5073,-20.2915 -30.5073,-20.2915 z"
     id="path847" />
  <path
     style="fill:#b3b3b3;stroke-width:1"
     d="m 1321.7183,656.3521 21.394,-31.2955 29.7056,19.7583 29.7056,19.7582 -20.5923,31.8288 -20.5923,31.8288 -30.5073,-20.2915 -30.5074,-20.2916 z"
     id="path845" />
  <path
     style="fill:#666666;stroke-width:1"
     d="m 469.09179,259.7422 21.394,-31.29548 28.08194,18.09558 28.0819,18.0957 16.93295,-24.5751 16.9329,-24.57496 29.70559,19.75827 29.70559,19.75829 -20.5923,31.8288 -20.59232,31.8288 -28.24983,-18.79 -28.24986,-18.79 -16.79454,25.2497 -16.79454,25.2498 -30.47774,-20.2719 -30.47778,-20.2719 z"
     id="path843" />
  <path
     style="fill:#666666;stroke-width:1"
     d="m 310.65742,150.07699 21.39404,-31.29558 29.70559,19.75827 29.70558,19.75828 -20.59228,31.82886 -20.59232,31.82883 -30.50734,-20.29156 -30.5073,-20.29152 z"
     id="path841" />
  <path
     style="fill:#b3b3b3;stroke-width:1"
     d="m 1217.6943,535.7448 21.394,-31.2955 29.7056,19.7582 29.7056,19.7583 -20.5924,31.8288 -20.5923,31.8288 -30.5073,-20.2915 -30.5073,-20.2915 z"
     id="path839" />
  <path
     style="fill:#666666;stroke-width:1"
     d="m 422.48937,168.75874 21.39405,-31.29557 29.70558,19.75827 29.70563,19.75831 -20.59232,31.82883 -20.5923,31.82882 -30.50734,-20.2916 -30.5073,-20.29153 z"
     id="path837" />
  <path
     style="fill:#b3b3b3;stroke-width:1"
     d="m 1440.4589,658.2052 21.394,-31.2955 29.7056,19.7583 29.7055,19.7582 -20.5923,31.8288 -20.5922,31.8289 -30.5074,-20.2916 -30.5073,-20.2915 z"
     id="path835" />
  <path
     style="fill:#666666;stroke-width:1"
     d="M 351.10056,31.29553 372.49457,0 402.20014,19.75827 431.90577,39.51657 411.31348,71.34535 390.72116,103.17418 360.2138,82.88263 329.70651,62.5911 Z"
     id="path833" />
  <path
     style="fill:#b3b3b3;stroke-width:1"
     d="m 1403.1332,539.6496 20.7462,-31.1909 30.4482,20.2523 30.4483,20.2522 -20.7463,31.1909 -20.7462,31.1908 -30.4482,-20.2522 -30.4482,-20.2523 z"
     id="path831" />
  <path
     style="fill:#666666;stroke-width:1"
     d="m 533.67807,136.13118 20.74622,-31.19091 30.44822,20.25224 30.44823,20.25223 -20.74623,31.1909 -20.74618,31.19086 -30.44822,-20.25223 -30.44822,-20.25223 z"
     id="path829" />
  <path
     style="fill:#b3b3b3;stroke-width:1"
     d="m 1123.3966,345.0169 20.7461,-31.1909 29.7056,19.7583 29.7056,19.7583 -20.7462,31.1909 -20.7462,31.1909 -29.7056,-19.7583 -29.7056,-19.7583 z"
     id="path827" />
  <path
     style="fill:#b3b3b3;stroke-width:1"
     d="m 1320.9387,476.4094 20.7462,-31.1908 30.4482,20.2522 30.4482,20.2522 -20.7461,31.1909 -20.7463,31.1909 -30.4483,-20.2522 -30.4482,-20.2523 z"
     id="path823" />
</svg>
