<?xml version="1.0" encoding="UTF-8" standalone="no"?>
<!-- Created with Inkscape (http://www.inkscape.org/) -->

<svg
   xmlns:dc="http://purl.org/dc/elements/1.1/"
   xmlns:cc="http://creativecommons.org/ns#"
   xmlns:rdf="http://www.w3.org/1999/02/22-rdf-syntax-ns#"
   xmlns:svg="http://www.w3.org/2000/svg"
   xmlns="http://www.w3.org/2000/svg"
   xmlns:sodipodi="http://sodipodi.sourceforge.net/DTD/sodipodi-0.dtd"
   xmlns:inkscape="http://www.inkscape.org/namespaces/inkscape"
   width="500"
   height="500"
   viewBox="0 0 500 500"
   version="1.1"
   id="svg8"
   inkscape:version="0.92.4 (5da689c313, 2019-01-14)"
   sodipodi:docname="describe.svg">
  <defs
     id="defs2" />
  <sodipodi:namedview
     id="base"
     pagecolor="#ffffff"
     bordercolor="#666666"
     borderopacity="1.0"
     inkscape:pageopacity="0.0"
     inkscape:pageshadow="2"
     inkscape:zoom="0.70710678"
     inkscape:cx="447.59209"
     inkscape:cy="206.93852"
     inkscape:document-units="px"
     inkscape:current-layer="layer1"
     showgrid="true"
     units="px"
     inkscape:window-width="1676"
     inkscape:window-height="1767"
     inkscape:window-x="6169"
     inkscape:window-y="0"
     inkscape:window-maximized="0"
     inkscape:pagecheckerboard="false"
     inkscape:object-paths="true"
     inkscape:object-nodes="true"
     inkscape:snap-grids="false"
     inkscape:snap-object-midpoints="true">
    <inkscape:grid
       type="xygrid"
       id="grid1358"
       spacingx="20"
       spacingy="20" />
  </sodipodi:namedview>
  <metadata
     id="metadata5">
    <rdf:RDF>
      <cc:Work
         rdf:about="">
        <dc:format>image/svg+xml</dc:format>
        <dc:type
           rdf:resource="http://purl.org/dc/dcmitype/StillImage" />
        <dc:title />
      </cc:Work>
    </rdf:RDF>
  </metadata>
  <g
     inkscape:label="Layer 1"
     inkscape:groupmode="layer"
     id="layer1"
     transform="translate(0,-591.25001)">
    <path
       style="fill:#000000;stroke-width:1"
       d="m 422.41869,591.41166 c -11.70817,1.03964 -18.20332,12.21073 -26.8784,18.63222 -81.53135,76.23335 -159.38693,156.25894 -239.13849,234.32167 -4.10765,4.17353 -8.89476,8.13401 -8.32785,14.55145 -3.37454,25.21919 -9.709,50.33832 -9.02256,75.90948 1.42323,8.94226 10.96043,14.93092 19.67092,12.72437 27.33937,-1.11793 54.36831,-5.94843 81.51316,-8.67174 8.76581,-3.00208 13.07409,-12.1525 20.11971,-17.6 71.50894,-72.14389 144.36201,-142.9801 214.85486,-216.10996 9.95654,-11.02274 20.77101,-22.712 24.58807,-37.41745 1.69755,-12.29939 -7.62199,-22.13355 -16.24615,-29.4085 -15.95241,-15.53317 -30.39587,-33.5509 -50.07389,-44.58388 -3.46398,-1.54575 -7.24867,-2.48716 -11.05938,-2.34766 z m -142.86797,14.77253 c -76.69704,1.52794 -153.50181,-0.13857 -230.114822,4.23571 -16.611704,1.14341 -34.106329,9.45114 -41.0087686,25.38948 -6.415233,16.41944 -4.8621521,34.52119 -6.255226,51.7776 -2.10577021,65.1129 -1.23861761,130.27832 -2.07316041,195.41355 -0.0995950016,54.52333 -0.804369,109.1807 3.69218131,163.56207 1.4249764,14.2584 6.3846867,30.6465 20.5511087,37.0019 17.776529,8.2655 38.056345,5.0299 56.996646,6.3482 105.805051,1.9023 211.642561,1.2233 317.450811,0.041 17.99642,-0.6014 36.19592,-0.1417 54.00768,-2.9636 18.99455,-4.2411 35.94026,-20.0752 37.63127,-40.082 2.66107,-21.2533 1.96699,-42.6887 2.99986,-64.04646 1.2091,-52.41114 1.36655,-104.83876 2.23136,-157.25554 -13.92959,0 -27.85918,0 -41.78878,0 -0.8291,71.47576 -0.57793,143.21203 -2.07495,214.5261 -5.42853,4.3618 -10.12956,12.0233 -18.31395,9.7766 -124.91906,-0.9211 -249.87458,0.2701 -374.766235,-2.6123 -4.362713,-0.5535 -9.984256,0.074 -13.410666,-2.8905 -2.733801,-8.6005 -1.074805,-17.9116 -2.127109,-26.7757 -2.124639,-96.58854 -1.50406,-193.21095 -1.69044,-289.81542 0.317146,-23.32882 0.07366,-46.7243 2.362418,-69.91315 1.419425,-5.83655 7.329719,-9.32375 13.121504,-7.98219 71.042778,-2.57671 142.261438,-1.86709 213.314488,-1.2845 6.81499,1.55165 13.7711,-5.14125 11.51708,-12.06634 -0.77868,-9.89319 0.0513,-20.27979 -0.32039,-30.40519 l -0.97638,0.0107 z m 147.0026,31.99573 c 12.2748,7.56031 21.80403,18.88152 30.41473,30.1649 -1.64554,4.25544 -6.73083,6.26696 -9.17406,10.15665 C 372.67544,755.435 295.15044,829.9601 218.79755,905.6571 c -14.188,1.83304 -28.05127,6.57895 -42.24076,5.74615 3.11872,-13.08119 5.93906,-26.79679 11.45034,-38.95876 77.49913,-76.74775 153.05162,-155.70975 232.76762,-230.0403 1.76445,-1.31473 3.76515,-3.39874 5.77857,-4.22427 z"
       id="path1997"
       inkscape:connector-curvature="0" />
  </g>
</svg>
