<?xml version="1.0" encoding="UTF-8" standalone="no"?>
<!-- Created with Inkscape (http://www.inkscape.org/) -->

<svg
   xmlns:dc="http://purl.org/dc/elements/1.1/"
   xmlns:cc="http://creativecommons.org/ns#"
   xmlns:rdf="http://www.w3.org/1999/02/22-rdf-syntax-ns#"
   xmlns:svg="http://www.w3.org/2000/svg"
   xmlns="http://www.w3.org/2000/svg"
   xmlns:sodipodi="http://sodipodi.sourceforge.net/DTD/sodipodi-0.dtd"
   xmlns:inkscape="http://www.inkscape.org/namespaces/inkscape"
   width="500"
   height="500"
   viewBox="0 0 500 500"
   version="1.1"
   id="svg8"
   inkscape:version="0.92.4 (5da689c313, 2019-01-14)"
   sodipodi:docname="eye.svg">
  <defs
     id="defs2" />
  <sodipodi:namedview
     id="base"
     pagecolor="#ffffff"
     bordercolor="#666666"
     borderopacity="1.0"
     inkscape:pageopacity="0.0"
     inkscape:pageshadow="2"
     inkscape:zoom="0.35"
     inkscape:cx="6.0768624"
     inkscape:cy="148.64753"
     inkscape:document-units="px"
     inkscape:current-layer="layer1"
     showgrid="true"
     units="px"
     inkscape:window-width="1291"
     inkscape:window-height="1008"
     inkscape:window-x="428"
     inkscape:window-y="0"
     inkscape:window-maximized="0"
     inkscape:pagecheckerboard="false">
    <inkscape:grid
       type="xygrid"
       id="grid1358"
       spacingx="20"
       spacingy="20" />
  </sodipodi:namedview>
  <metadata
     id="metadata5">
    <rdf:RDF>
      <cc:Work
         rdf:about="">
        <dc:format>image/svg+xml</dc:format>
        <dc:type
           rdf:resource="http://purl.org/dc/dcmitype/StillImage" />
        <dc:title></dc:title>
      </cc:Work>
    </rdf:RDF>
  </metadata>
  <g
     inkscape:label="Layer 1"
     inkscape:groupmode="layer"
     id="layer1"
     transform="translate(0,-591.25001)">
    <path
       style="fill:#000000;stroke-width:1"
       d="m 250.00021,719.76831 c -53.40517,0 -106.81046,16.14107 -161.124428,48.42337 -28.904432,17.17959 -85.6504825,61.61794 -88.6434874,69.41749 -4.4825841,11.68126 56.7859104,61.91116 108.0491454,88.58108 50.43933,26.24139 81.7358,34.813 132.49815,36.29058 24.34367,0.70862 50.90016,-0.13575 59.01498,-1.87967 26.83606,-5.76352 62.29899,-19.05975 92.07569,-34.52059 51.04466,-26.50358 112.37854,-76.79488 107.89786,-88.4714 -2.99297,-7.79955 -59.73905,-52.2379 -88.64348,-69.41749 -54.31398,-32.2823 -107.71927,-48.42337 -161.12443,-48.42337 z m 0,23.03453 c 33.55299,0 73.46265,26.06233 88.97252,58.10161 17.6797,36.52138 7.14677,87.78182 -23.32195,113.50096 -31.49544,26.58578 -75.16558,31.96123 -110.34484,13.5832 -61.63305,-32.19748 -71.23921,-113.36328 -18.87239,-159.45844 16.55462,-14.57222 44.11595,-25.72733 63.56666,-25.72733 z m -12.48074,39.45426 8.08411,10.27769 c 24.23505,30.80986 -13.24705,63.59596 -39.98374,34.97443 l -10.45545,-11.19295 -2.50182,16.68259 c -3.65676,24.38495 9.13636,48.89213 31.3777,60.10798 9.05157,4.5644 20.73372,8.2997 25.95994,8.2997 5.22622,0 16.90837,-3.7353 25.95993,-8.2997 11.9634,-6.03287 18.78771,-12.83153 24.99362,-24.89717 19.48187,-37.87687 -2.98265,-79.13972 -45.70786,-83.95565 z"
       id="path891"
       inkscape:connector-curvature="0" />
  </g>
</svg>
