<?xml version="1.0" encoding="UTF-8" standalone="no"?>
<!-- Created with Inkscape (http://www.inkscape.org/) -->

<svg
   xmlns:dc="http://purl.org/dc/elements/1.1/"
   xmlns:cc="http://creativecommons.org/ns#"
   xmlns:rdf="http://www.w3.org/1999/02/22-rdf-syntax-ns#"
   xmlns:svg="http://www.w3.org/2000/svg"
   xmlns="http://www.w3.org/2000/svg"
   xmlns:sodipodi="http://sodipodi.sourceforge.net/DTD/sodipodi-0.dtd"
   xmlns:inkscape="http://www.inkscape.org/namespaces/inkscape"
   width="500"
   height="500"
   viewBox="0 0 500 500"
   version="1.1"
   id="svg8"
   inkscape:version="0.92.4 (5da689c313, 2019-01-14)"
   sodipodi:docname="geometry.svg">
  <defs
     id="defs2" />
  <sodipodi:namedview
     id="base"
     pagecolor="#ffffff"
     bordercolor="#666666"
     borderopacity="1.0"
     inkscape:pageopacity="0.0"
     inkscape:pageshadow="2"
     inkscape:zoom="0.98994949"
     inkscape:cx="478.26778"
     inkscape:cy="230.15974"
     inkscape:document-units="px"
     inkscape:current-layer="layer1"
     showgrid="true"
     units="px"
     inkscape:window-width="1920"
     inkscape:window-height="1017"
     inkscape:window-x="2987"
     inkscape:window-y="-8"
     inkscape:window-maximized="1"
     inkscape:pagecheckerboard="false"
     inkscape:snap-global="true"
     inkscape:snap-grids="false">
    <inkscape:grid
       type="xygrid"
       id="grid1358"
       spacingx="20"
       spacingy="20" />
  </sodipodi:namedview>
  <metadata
     id="metadata5">
    <rdf:RDF>
      <cc:Work
         rdf:about="">
        <dc:format>image/svg+xml</dc:format>
        <dc:type
           rdf:resource="http://purl.org/dc/dcmitype/StillImage" />
        <dc:title></dc:title>
      </cc:Work>
    </rdf:RDF>
  </metadata>
  <g
     inkscape:label="Layer 1"
     inkscape:groupmode="layer"
     id="layer1"
     transform="translate(0,-591.25001)">
    <g
       id="g5834"
       transform="matrix(0.52791069,0,0,0.52791069,-0.96724101,276.55767)"
       style="stroke-width:1.89425981">
      <path
         inkscape:connector-curvature="0"
         id="path5723"
         d="m 116.7793,589.57422 c -5.04088,1.78732 -2.81578,8.90493 -4.64844,12.56055 -7.8053,27.56095 -24.845084,51.13151 -36.046991,77.27106 -15.749048,34.26478 -29.443639,70.15273 -53.538947,99.71136 -9.007968,11.75297 -19.1937951,23.4889 -24.2285158,37.52734 -0.6502053,2.56706 1.0934485,7.12581 4.2460938,4.57031 2.0440365,-2.30905 5.3990041,-3.20798 7.0019531,-6.39843 18.0032949,-24.2484 38.5247529,-47.28566 51.6152859,-74.92055 14.655284,-29.67792 26.342116,-60.70017 42.536131,-89.60758 8.17776,-16.80615 19.73648,-33.38221 20.19233,-52.71406 -0.27785,-4.62468 -5.01653,-6.94077 -4.92382,-11.75781 -0.73503,1.2526 -1.47006,2.5052 -2.20508,3.75781 z"
         style="fill:#000000;stroke-width:1.89425981" />
      <path
         inkscape:connector-curvature="0"
         id="path5719"
         d="m 584.58203,589.14453 c -3.44136,0.46146 -4.49087,4.28999 -7.47461,5.69531 -15.98796,19.16884 -28.67379,40.8749 -41.70766,62.10248 -13.53818,21.68601 -21.49279,48.42438 -43.24351,63.53424 -29.23617,21.90861 -65.77769,29.5 -99.13388,42.85283 -24.58244,9.07984 -48.9361,21.42079 -65.87828,42.02243 -14.66124,15.60678 -20.5148,36.78228 -24.1322,57.3341 -4.45804,24.22688 -14.00369,47.10547 -27.29047,67.7217 -10.95737,16.66277 -19.43189,34.91392 -24.02732,54.36721 -6.00779,24.13817 -15.03708,48.73087 -33.3103,66.55607 -30.44545,31.3736 -71.71839,51.102 -97.73636,86.9728 -21.677357,27.7084 -37.74484,59.3635 -60.182902,86.4708 -13.017827,16.0129 -30.662101,27.3568 -49.230163,35.6708 -4.7104293,3.3513 -11.88302509,6.3584 -12.8984375,12.6777 0.94543689,5.1914 7.5210069,2.5842 10.6035156,1.1758 23.9923199,-11.0121 48.0177459,-24.508 64.0414419,-46.131 29.550025,-38.2426 49.521875,-84.5588 88.118945,-115.1389 26.97321,-23.2931 60.26735,-40.6519 80.22773,-71.125 15.09171,-22.2367 19.28279,-49.4899 28.00682,-74.21027 8.21765,-22.31978 24.51603,-40.49832 32.80753,-62.81695 8.9627,-20.29738 12.42731,-42.31168 18.29949,-63.5466 7.61181,-27.27877 30.12089,-47.69817 55.83782,-58.28376 33.60843,-15.45543 70.18007,-23.67445 103.21296,-40.47601 20.36442,-10.65374 37.44945,-27.19786 48.33789,-47.47656 13.97047,-27.10771 29.44022,-53.44552 46.95628,-78.43285 4.50231,-7.85954 11.46663,-15.00995 13.24684,-24.08278 -0.12091,-1.61439 -1.57262,-3.91812 -3.45117,-3.43359 z"
         style="fill:#000000;stroke-width:1.89425981" />
      <path
         inkscape:connector-curvature="0"
         id="path5717"
         d="m 319.54297,589.50977 c -7.88289,4.32662 -9.18,14.54117 -12.46485,22.12695 -7.26797,23.44689 -15.38118,47.34183 -15.42968,72.1543 -0.0282,19.60875 7.3411,41.76185 25.91992,51.10937 14.52099,3.92358 29.9159,2.93358 44.79883,2.19336 -15.59942,3.34573 -31.43814,8.19494 -47.45508,7.1582 -11.46215,-0.98478 -20.86603,-9.93049 -23.35742,-21.01562 -7.48196,-28.18311 -1.64468,-57.95242 4.44647,-85.92383 2.55596,-14.08581 7.24027,-27.97819 7.98517,-42.3125 0.081,-4.16783 -5.56893,-8.07007 -8.22852,-3.70312 -5.12669,11.43984 -6.34654,24.31356 -9.61914,36.37109 -5.3802,25.06718 -12.19493,50.45915 -9.5224,76.33701 0.83348,16.07361 4.95655,33.47843 18.03607,44.09268 12.57708,11.26871 30.86559,8.2758 46.09766,5.95703 33.12656,-6.72603 66.85144,-15.68762 95.26172,-34.69531 20.62867,-13.75405 36.05422,-33.8425 47.77539,-55.4336 12.03472,-20.92135 24.34741,-41.73496 35.38672,-63.19336 1.39526,-3.44077 2.8889,-9.18866 -0.85938,-11.48828 -6.21355,-0.30979 -9.34354,6.70753 -12.2207,11.20117 -16.19146,30.13243 -32.53941,60.43328 -52.60742,88.06641 -8.0246,9.43491 -17.65234,17.27817 -28.04102,24.01172 22.84533,-17.25699 39.48192,-41.33374 51.26515,-67.18242 7.59439,-16.48319 16.28764,-32.75406 21.06298,-50.32149 0.37778,-3.86242 -3.94606,-7.77069 -7.33789,-4.61914 -8.25257,8.59631 -11.41525,20.76425 -16.59934,31.24092 -13.67847,30.02315 -28.87265,61.96178 -56.9107,81.25855 -26.43816,18.29438 -60.28247,25.68619 -91.84153,20.42631 -11.17454,-3.47805 -16.48483,-15.65905 -19.26757,-26.06836 -3.29347,-28.28811 5.37868,-55.90745 13.73754,-82.45146 1.96426,-7.52345 6.40487,-15.55523 4.34058,-23.45088 -0.74696,-1.56227 -3.0534,-2.46276 -4.35156,-1.8457 z"
         style="fill:#000000;stroke-width:1.89425981" />
      <path
         inkscape:connector-curvature="0"
         id="path5715"
         d="m 75.707031,589.30078 c -6.142063,0.57258 -3.231752,8.72756 -4.191362,12.70886 0.157739,13.75267 -2.90929,27.05507 -7.359548,40.0373 -8.900669,30.44177 -13.158831,62.77485 -29.296676,90.60883 -7.548515,15.1546 -17.745571,28.65476 -27.9199919,42.08642 -2.9229532,5.25127 -7.76638103,9.95388 -8.5898437,16.05273 -0.895776,3.90214 3.5495175,5.2171 6.1738281,2.9707 12.3346395,-9.79412 21.3835005,-23.14479 30.4257815,-35.88867 20.814602,-30.55968 30.347133,-66.78627 38.926046,-102.24248 5.032128,-19.60055 12.530695,-39.84216 9.099344,-60.42158 -0.573095,-3.45031 -3.855771,-5.93798 -7.267578,-5.91211 z"
         style="fill:#000000;stroke-width:1.89425981" />
      <path
         inkscape:connector-curvature="0"
         id="path5713"
         d="m 539.60156,589.2832 c -4.78247,0.53551 -6.2445,6.48078 -9.55468,9.33789 -21.29853,28.79508 -35.51412,62.35907 -58.53024,89.93596 -20.15704,24.5441 -48.47953,41.05644 -78.53072,50.48147 -33.55789,11.44781 -67.21951,23.27334 -101.39412,32.68023 -10.31818,-0.82518 -13.83167,-12.75387 -16.34514,-21.07794 -6.63622,-28.68319 -6.03796,-58.70886 -1.05803,-87.69168 3.21033,-21.9912 7.26739,-43.95443 9.12582,-66.0878 -0.94171,-3.204 -2.47845,-8.78339 -7.03125,-7.25391 -2.95771,1.08411 -0.67639,4.26063 -2.42773,5.9961 -5.79241,22.23424 -7.47342,45.27039 -11.75672,67.81577 -5.20784,28.36818 -4.38242,57.69689 0.57703,86.02993 2.5803,13.23889 8.61923,28.6881 22.89063,32.82812 8.71742,3.43439 17.47616,-2.40849 25.9428,-4.04468 37.5947,-11.90035 75.31419,-23.68516 111.98688,-38.22094 31.02036,-15.73559 58.34113,-39.69847 75.57031,-70.14605 14.25862,-23.60689 29.44918,-46.69929 42.70313,-70.88911 1.77491,-2.98064 3.98636,-9.22536 -2.16797,-9.69336 z"
         style="fill:#000000;stroke-width:1.89425981" />
      <path
         inkscape:connector-curvature="0"
         id="path5707"
         d="m 238.8125,589.96289 c -2.9797,3.63397 0.92894,8.70524 1.23308,12.70749 4.82381,17.99402 0.69224,36.81862 0.94701,55.14422 -1.88979,43.68012 -1.61842,87.7236 -5.74064,131.09751 -5.24316,28.60305 -19.06013,56.25113 -42.18554,74.49219 -22.50156,17.53274 -51.70563,22.13746 -76.34164,35.78412 -30.376011,15.84039 -50.291107,44.95314 -75.343911,67.36627 -12.910785,13.77477 -30.139886,22.82049 -42.18749962,37.49611 -2.02794208,0.939 -1.06792748,2.2512 -0.61523438,4.4316 2.9732071,3.7982 8.1754504,-0.6842 11.3570659,-2.2846 32.2530151,-19.92786 57.2815651,-48.81968 83.4007471,-75.77397 19.191672,-19.44319 45.269322,-28.69488 70.255342,-38.12407 28.43312,-10.22892 53.93262,-29.97222 67.93997,-57.10054 12.27108,-21.74311 16.50622,-46.78419 17.5625,-71.43555 2.64333,-46.84635 2.72572,-93.81246 4.91779,-140.66012 -0.66632,-8.26833 -0.0394,-17.23613 -3.74396,-24.8555 -3.12459,-3.73252 -5.84506,-9.51987 -11.45508,-9.24024 z"
         style="fill:#000000;stroke-width:1.89425981" />
      <path
         inkscape:connector-curvature="0"
         id="path5705"
         d="m 468.0918,589.33398 c -4.69267,0.12215 -4.45792,6.17358 -6.31446,9.22071 -10.27831,30.80317 -18.57838,64.26174 -42.60156,87.73242 -17.62273,17.37202 -42.6675,24.32901 -66.70703,25.4375 -14.10874,0.079 -27.122,-10.41279 -29.75195,-24.32813 -5.26446,-25.13307 3.51807,-50.51107 13.12514,-73.45253 2.19264,-6.67105 7.73116,-13.06415 7.51158,-20.40098 -2.09814,-3.51325 -6.81403,-2.26112 -8.67383,0.86133 -6.24178,7.70277 -9.00605,17.5279 -13.22071,26.36914 -1.7638,6.34015 -3.22293,12.74587 -6.09765,18.67383 -5.82747,20.49789 -8.75944,44.52231 2.89844,63.59375 7.72218,12.47609 22.67914,19.43064 37.20703,18.05078 7.69469,0.25282 15.66218,-0.78321 23.30468,-2.18555 21.44853,-5.23995 41.42615,-17.37102 55.74805,-34.1875 6.56142,-9.52862 14.02164,-18.97359 17.95313,-29.93359 0.86347,-3.45751 3.76493,-6.23835 4.51953,-9.94922 4.92184,-13.75672 9.12304,-27.80453 14.22656,-41.46875 0.46254,-4.24047 1.3735,-8.95704 -0.15625,-12.95313 -0.65583,-1.02649 -1.90713,-1.13657 -2.9707,-1.08008 z"
         style="fill:#000000;stroke-width:1.89425981" />
      <path
         inkscape:connector-curvature="0"
         id="path5703"
         d="m 561.96484,589.35742 c -7.04679,2.70159 -9.92431,10.93872 -14.38281,16.44336 -19.99206,30.26887 -37.03718,62.60105 -59.60547,91.05664 -12.43796,14.83482 -27.75217,27.08461 -45.92773,34.14258 -36.42688,16.3764 -75.05296,28.1094 -109.82168,48.02203 -22.26269,13.34193 -39.87493,34.61166 -47.11192,59.70844 -5.42002,18.18864 -9.14444,37.15607 -18.22646,53.94809 -15.61031,29.39915 -28.62934,60.37162 -35.57863,93.02243 -4.43344,20.11601 -11.9386,40.46151 -26.61873,55.71501 -21.48198,24.3725 -52.60874,36.3889 -77.15235,56.9453 -20.72699,18.8333 -33.518235,44.3681 -49.170855,67.1921 -12.770299,18.9533 -24.810785,39.5265 -43.644015,53.0785 -9.223581,7.9475 -20.193563,12.7413 -30.7359088,18.5204 -2.7544818,1.8918 -8.2003996,6.2143 -4.2226562,9.5235 7.9444423,3.1182 15.716851,-3.3031 22.59658,-6.473 24.29575,-13.3567 43.717023,-33.9889 58.51131,-57.2064 18.408302,-26.1256 31.806095,-56.6373 56.644065,-77.6194 23.58598,-18.4791 52.09163,-30.653 72.34244,-53.3174 13.37901,-13.4754 23.39943,-30.0972 28.48832,-48.4337 8.77808,-28.06955 13.48518,-57.85155 27.98174,-83.71965 11.38616,-20.57702 21.63776,-42.04214 26.4196,-65.2232 4.99631,-25.30931 19.04267,-48.87349 40.7683,-63.12853 18.68482,-11.5504 39.58258,-18.86059 59.66698,-27.61313 24.3366,-10.16844 49.2619,-19.29444 72.51386,-31.81355 27.69336,-16.65945 44.03255,-45.80309 61.4062,-71.96506 12.79739,-20.90748 26.66243,-41.25937 37.8481,-63.09442 1.81625,-2.98733 1.93045,-8.42054 -2.98828,-7.71094 z"
         style="fill:#000000;stroke-width:1.89425981" />
      <path
         inkscape:connector-curvature="0"
         id="path5699"
         d="m 371.28125,589.45312 c -6.15477,1.46722 -11.69394,5.65298 -16.19531,10.06641 -12.17591,13.66818 -18.37639,31.63466 -22.45117,49.20313 -3.43802,16.65763 -1.23465,37.26308 13.8789,47.67578 13.52548,9.50473 31.3941,5.29407 45.46875,-0.67578 16.0884,-6.69475 29.32369,-19.46473 36.41992,-35.41211 8.10546,-17.58105 14.27868,-37.34254 11.39063,-56.86914 -1.20358,-5.67353 -4.58441,-12.78166 -10.82227,-13.88672 -4.74491,1.64686 -1.02201,7.69979 -0.0156,10.80859 4.57264,15.06448 -0.24365,30.89514 -4.58718,45.59527 -7.56388,23.7778 -29.07052,43.67938 -54.53001,46.00825 -12.357,1.55901 -26.29622,-6.05405 -27.86719,-19.26758 -2.57414,-20.72479 4.66142,-41.51068 15.09571,-59.18555 4.18126,-8.02756 12.2232,-13.04067 17.10742,-20.37695 0.75118,-1.93456 -0.85298,-3.91822 -2.89258,-3.6836 z"
         style="fill:#000000;stroke-width:1.89425981" />
      <path
         inkscape:connector-curvature="0"
         id="path5697"
         d="m 389.70898,612.6582 c -17.68863,1.4365 -30.34646,18.45693 -33.00781,34.9961 -2.2793,11.16261 3.76491,24.68159 15.81055,26.75976 15.61479,2.41181 29.02782,-10.66524 34.67773,-24.0664 5.02918,-11.87775 3.94956,-29.17939 -8.55273,-35.94727 -2.75014,-1.37798 -5.86798,-1.917 -8.92774,-1.74219 z m 1.21875,11.74414 c 7.84923,0.44777 7.3774,10.54815 6.84766,16.24219 -1.75339,10.52116 -10.22441,20.8409 -21.05664,22.38672 -9.35723,-0.0455 -10.3418,-11.76033 -7.33398,-18.44922 3.5267,-9.0777 10.83479,-19.71507 21.54296,-20.17969 z"
         style="fill:#000000;stroke-width:1.89425981" />
      <path
         inkscape:connector-curvature="0"
         id="path5693"
         d="m 179.32031,619.01172 c -28.65046,1.28497 -52.4332,21.03519 -69.75195,42.36914 -26.335921,33.39313 -40.709969,74.03309 -62.800782,110.05469 -12.46711,22.40573 -29.00321,42.5767 -39.2636718,66.23828 -10.1780613,27.13877 -9.6630976,56.68824 -8.75,85.18555 1.75381571,6.79101 4.2841189,15.35291 11.8261718,17.67773 13.793059,3.93168 26.447679,-5.73191 37.679766,-12.3253 21.723564,-14.54861 43.000256,-30.07561 67.849326,-38.95099 29.79444,-11.28509 62.63014,-21.97125 82.97872,-48.12605 14.43376,-19.13372 21.98055,-42.5195 27.42773,-65.58789 4.89173,-27.20519 3.68628,-55.08063 2.57422,-82.56641 -1.44591,-19.12178 -4.69943,-38.81178 -14.0332,-55.79492 -7.3428,-12.21068 -21.69956,-18.83262 -35.73633,-18.17383 z m 0.7793,9.7832 c 12.04582,-0.4194 24.17332,6.07502 28.63867,17.50391 9.56708,22.47046 10.44354,47.75909 11.85207,71.8981 0.91104,39.44921 -4.78372,81.17487 -27.88433,114.36747 -11.28214,16.63999 -28.39678,28.40708 -47.18786,35.0662 -29.85148,11.28591 -60.675912,21.97086 -86.198556,41.76099 -13.726207,8.6358 -27.156817,21.17611 -44.255151,21.77443 -7.0464094,-0.19768 -7.9281206,-9.08669 -9.3945311,-14.2754 -3.1849606,-22.46025 1.0584247,-45.35071 7.4023441,-66.72656 10.718595,-30.01854 31.971756,-54.60515 46.738281,-82.6875 22.133841,-37.37675 36.749088,-79.77386 67.173833,-111.5625 14.25049,-14.05343 32.39989,-26.64575 53.11523,-27.11914 z"
         style="fill:#000000;stroke-width:1.89425981" />
      <path
         inkscape:connector-curvature="0"
         id="path5685"
         d="m 17.675781,629.48242 c -7.278337,0.13771 -14.5435778,4.04238 -19.2148435,9.2168 -1.388165,3.10459 0.62728298,6.97192 4.40625,6.13476 8.1477955,-0.86675 18.9362325,-6.31172 25.3242185,1.47266 8.164206,10.12188 6.656248,23.93562 6.896485,36.03516 -0.7023,24.36668 -10.138072,47.87217 -25.4918852,66.75658 -3.8240467,6.02552 -8.3703886,12.08925 -11.2522558,18.44068 -1.2331217,4.71683 4.9831071,5.42007 7.7050781,2.91016 11.8331699,-11.45925 20.7968209,-25.66583 28.9346719,-39.9025 8.188773,-16.00599 12.061208,-33.90415 11.852438,-51.85141 0.140995,-14.40959 0.386671,-31.29549 -11.25586,-41.80078 -4.798103,-4.52817 -11.232462,-7.51568 -17.904297,-7.41211 z"
         style="fill:#000000;stroke-width:1.89425981" />
      <path
         inkscape:connector-curvature="0"
         id="path5681"
         d="m 162.11133,660.19531 c -26.23214,0.54358 -47.82701,19.90188 -61.00977,41.13477 -18.547655,31.91943 -33.270907,65.88138 -49.312515,99.08971 -6.956783,15.25227 -15.382225,31.3253 -12.775373,48.67005 0.472388,10.94037 8.55253,20.30042 18.999127,23.13894 11.094535,3.21253 22.897823,-0.0227 34.098795,-1.15734 24.990326,-4.67258 51.753466,-8.21503 72.639226,-23.96159 30.01793,-22.16515 43.42544,-60.10587 46.10868,-96.14585 1.62215,-24.72319 1.12043,-51.95807 -13.37903,-73.18666 -7.31093,-10.049 -18.71357,-18.80059 -31.81445,-17.58984 -1.18503,-0.009 -2.3698,-0.0182 -3.55469,0.008 z m -0.18945,10.78516 c 13.62221,-0.79676 25.76632,8.76514 30.42968,21.19531 8.58249,21.98389 8.65402,46.39756 5.74848,69.7842 -4.56545,30.89527 -18.4663,63.39327 -46.43846,80.06195 -21.32488,11.05261 -45.33534,14.49434 -68.772908,18.64213 -10.045324,1.64861 -24.001224,4.46148 -30.398438,-6.01758 -3.807421,-9.47041 -1.995378,-20.45874 1.246094,-29.86718 17.448628,-39.18973 35.995586,-77.89315 55.828832,-115.93252 10.70203,-17.15938 27.07548,-31.77794 46.88992,-37.20811 1.79611,-0.38264 3.62952,-0.62604 5.4668,-0.6582 z"
         style="fill:#000000;stroke-width:1.89425981" />
      <path
         inkscape:connector-curvature="0"
         id="path5675"
         d="m 3.953125,668.89648 c -3.55433212,-0.85201 -6.956937,2.77904 -4.625,6.04688 4.7043757,7.40747 12.164549,13.85279 12.154297,23.39062 1.541316,14.88996 -7.171127,28.1822 -11.18945325,42.00782 -1.30452915,3.24171 -4.00666815,9.06778 0.2578125,11.04882 6.85468265,0.83643 9.16709085,-7.604 12.22070275,-12.10156 6.641942,-13.85972 15.318202,-29.03025 11.392235,-44.95059 -2.361711,-9.82566 -6.96105,-21.63044 -17.3941878,-25.14902 -0.9197721,-0.23517 -1.8731486,-0.29809 -2.8164062,-0.29297 z"
         style="fill:#000000;stroke-width:1.89425981" />
      <path
         inkscape:connector-curvature="0"
         id="path5671"
         d="m 153.18359,694.45508 c -19.04499,1.06949 -34.81751,15.06585 -43.82421,31.08008 -12.989372,22.8585 -25.197315,47.40697 -27.390361,73.99851 -1.25615,13.37806 3.882042,28.87956 17.150122,34.39406 20.923359,8.742 45.784539,0.23081 61.177739,-15.32421 24.11747,-24.6172 32.78526,-61.62045 26.31054,-94.97657 -3.48671,-13.51343 -14.47941,-25.93051 -28.43359,-28.81054 -1.64769,-0.2729 -3.32044,-0.39323 -4.99024,-0.36133 z m 0.37305,10.17187 c 14.87124,0.38252 24.93193,15.37889 24.6875,29.18946 1.20371,18.6597 0.67442,38.39959 -9.0151,55.21973 -7.77299,13.8987 -17.31331,28.8731 -32.65092,34.9873 -12.12332,3.60132 -26.40817,5.05154 -37.874995,-1.26172 -9.495203,-8.30336 -7.242198,-22.29722 -5.354665,-33.41418 5.365533,-23.41831 15.45042,-46.25438 29.02068,-66.35145 7.21793,-9.92766 18.2676,-18.83622 31.1875,-18.36914 z"
         style="fill:#000000;stroke-width:1.89425981" />
      <path
         inkscape:connector-curvature="0"
         id="path5645"
         d="m 195.46289,897.99414 c -18.40184,1.40634 -36.12953,7.62107 -53.34961,13.93555 -19.5301,7.65463 -36.96819,21.20336 -47.319267,39.66919 -16.964073,27.44048 -28.780428,58.50562 -51.986717,81.49412 -12.637767,13.6039 -27.183209,25.8082 -37.3170616,41.5164 -3.3335681,7.3728 -9.2397413,15.7134 -6.27343752,24.1777 3.92130702,2.8038 3.96137712,-3.8488 6.88085932,-4.5547 5.8888358,-8.175 10.8052118,-17.1121 17.9999998,-24.3359 18.472004,-20.0789 39.221673,-38.7487 53.119675,-62.6289 6.047,-11.31432 11.703362,-22.9555 18.448267,-33.95353 9.768252,-17.2196 20.218282,-35.64424 38.533322,-45.04008 18.81578,-10.00911 40.10331,-15.64364 61.19063,-18.33221 7.82512,-1.28187 17.78219,1.67537 19.03233,10.64806 2.98724,18.25988 -0.32162,36.85533 -2.4668,55.07422 -2.65447,20.49433 -9.82196,41.24034 -25.62579,55.38214 -16.75734,18.1966 -41.52406,23.8683 -64.15684,31.0411 -20.96043,7.086 -40.055738,23.4712 -44.986903,45.7584 -9.449574,32.0896 -25.798061,63.6558 -52.613281,84.5469 -7.635509,6.4877 -18.685784,8.4376 -25.1113285,16.3125 -2.2581356,4.8303 4.4414254,7.1777 8.0820313,5.4883 23.5499842,-7.0169 41.0744332,-26.2165 54.6779152,-45.8144 13.160741,-18.9723 21.48893,-40.6845 28.225798,-62.6156 5.05413,-14.7913 17.273888,-26.2309 31.926368,-31.3298 20.68261,-7.2043 43.15199,-11.5836 60.64648,-25.6836 14.22966,-11.4123 27.68948,-25.0992 33.4668,-42.8477 9.86051,-25.34684 9.90072,-53.07509 10.75821,-79.86493 0.99623,-14.01768 -10.69725,-26.75461 -24.58243,-27.70729 -2.38541,-0.3087 -4.79588,-0.39996 -7.19922,-0.33594 z"
         style="fill:#000000;stroke-width:1.89425981" />
      <path
         inkscape:connector-curvature="0"
         id="path5641"
         d="m 166.41016,932.76953 c -24.8741,1.62291 -45.32092,22.39759 -52.06204,45.55685 -5.76093,18.17248 0.0546,41.72302 18.29055,50.39042 20.56783,9.3704 45.44254,-2.3377 56.37549,-20.9506 10.76774,-17.62181 15.07202,-41.25679 5.37646,-60.25839 -5.30235,-10.19552 -16.82096,-15.28205 -27.98046,-14.73828 z m 2.42968,9.86133 c 12.21282,-0.64403 20.14403,11.7153 20.68946,22.56836 2.0259,21.38154 -7.83666,47.19788 -29.67578,55.09958 -13.11196,4.8431 -32.26985,0.2226 -35.75586,-15.1386 -3.53305,-15.87978 -0.74695,-33.35967 10.93359,-45.42582 8.58092,-9.50357 20.6967,-16.93781 33.80859,-17.10352 z"
         style="fill:#000000;stroke-width:1.89425981" />
    </g>
    <path
       style="fill:#000000"
       d="m 305.72747,678.19168 c -3.5907,0.90317 -2.52262,6.81864 -3.91346,9.50817 -1.17498,5.59197 -2.30671,11.19292 -3.46349,16.78871 -5.03998,-0.41016 -10.21706,-1.89797 -15.25586,-0.7168 -1.11109,10.98903 2.75249,23.62853 -4.06641,33.38867 2.51032,7.94246 5.22361,15.70214 8.6211,23.3418 -4.41513,5.70577 -11.52374,11.59426 -8.92579,19.69336 0.98289,5.86315 -8.18693,3.04257 -7.77148,8.58789 -0.85982,4.27194 -1.22789,8.95981 1.33008,12.86719 1.1906,4.26785 -3.07375,9.08016 -1.20313,12.68359 29.14594,16.9526 58.72317,33.15148 88.11719,49.66797 18.062,1.10113 36.06115,4.21491 54.15039,3.77734 2.43563,-1.30355 0.51591,-5.9056 1.61726,-8.0659 4.82347,-55.32989 9.45347,-110.82794 13.03118,-166.17238 -40.67946,-5.64698 -81.46386,-11.06539 -122.26758,-15.34961 z m 5.45703,7.39453 c 35.59837,3.0406 71.10311,7.53238 106.43515,12.83133 5.68974,0.23248 2.78163,7.42808 3.17227,10.98899 -3.40281,49.08683 -7.44047,98.14206 -11.64453,147.16211 0.0957,3.9022 -2.94659,6.94254 -6.97544,5.1641 -13.83174,-1.39519 -27.80581,-2.30702 -41.5519,-3.96684 -26.51767,-15.08129 -53.57603,-29.29713 -79.74219,-44.95117 -4.11019,-2.53848 -1.93689,-7.36469 -1.44922,-10.97656 -1.42847,-3.29665 -5.35111,-9.5585 0.1836,-11.27735 3.09527,-0.62059 6.45367,-0.27263 5.08088,-4.71428 0.47627,-6.16644 -1.89037,-14.06058 5.01207,-17.57546 3.21788,-3.28824 7.59273,-6.63564 9.86798,-10.34112 -4.88711,-1.1458 -9.01096,-4.3346 -10.21557,-9.4048 -1.91018,-4.45761 -4.84957,-9.90966 -1.19849,-14.33738 2.22898,-7.55154 -0.56458,-15.96977 2.2793,-23.32422 4.89799,-2.42701 6.80547,5.71856 10.79883,7.09961 3.85867,-10.20299 4.14498,-21.75926 7.93359,-31.82227 0.49779,-0.5328 1.3329,-0.53593 2.01367,-0.55469 z"
       id="path5861"
       inkscape:connector-curvature="0" />
    <path
       style="color:#000000;font-style:normal;font-variant:normal;font-weight:normal;font-stretch:normal;font-size:medium;line-height:normal;font-family:sans-serif;font-variant-ligatures:normal;font-variant-position:normal;font-variant-caps:normal;font-variant-numeric:normal;font-variant-alternates:normal;font-feature-settings:normal;text-indent:0;text-align:start;text-decoration:none;text-decoration-line:none;text-decoration-style:solid;text-decoration-color:#000000;letter-spacing:normal;word-spacing:normal;text-transform:none;writing-mode:lr-tb;direction:ltr;text-orientation:mixed;dominant-baseline:auto;baseline-shift:baseline;text-anchor:start;white-space:normal;shape-padding:0;clip-rule:nonzero;display:inline;overflow:visible;visibility:visible;opacity:1;isolation:auto;mix-blend-mode:normal;color-interpolation:sRGB;color-interpolation-filters:linearRGB;solid-color:#000000;solid-opacity:1;vector-effect:none;fill:#000000;fill-opacity:1;fill-rule:nonzero;stroke:none;stroke-width:6;stroke-linecap:butt;stroke-linejoin:miter;stroke-miterlimit:4;stroke-dasharray:none;stroke-dashoffset:0;stroke-opacity:1;color-rendering:auto;image-rendering:auto;shape-rendering:auto;text-rendering:auto;enable-background:accumulate"
       d="m 253.97852,858.92578 -18.49024,13.41016 3.01758,9.58594 -17.97852,0.5996 -26.35546,6.98243 -22.1836,18.1875 2.47266,2.33984 17.17187,16.24609 61.55664,10.31836 63.52149,-9.32031 24.41992,-20.31641 -22.10547,-19.5 -43.65234,-5.73437 1.4082,-10.87891 z m 1.25781,9.63086 5.05859,6.41406 -7.53515,0.50977 z m -7.08985,2.01172 -1.3789,3.85547 -2.21875,-1.24805 z m 17.13282,1.03516 2.44336,1.27734 -0.93164,0.63867 z m 4.42187,7.19726 -0.27734,2.14258 -0.54492,-0.0723 0.15039,-1.61132 z m -25.5625,1.0293 1.4668,0.82617 0.12695,1.02539 -1,0.0332 z m 18.71875,0.98242 -0.19922,2.13477 -10.62304,0.79882 -0.27149,-2.18359 z m 7.48633,6.92969 0.61133,1.26172 -1.52539,0.99609 -0.4375,-1.96289 z m -27.05859,0.42383 1.74609,0.55078 -0.77539,1.41992 -1.84766,-1.1836 z m 19.75976,0.76953 0.63672,2.86133 -13.33984,-0.29102 0.92187,-1.68555 z m -26.35351,3.47851 2.81054,1.80078 -46.00586,25.56446 -12.4375,-11.76563 15.67383,-12.85156 z m 38.99804,0.66602 40.89453,0.22851 15.32618,13.51758 -16.73243,13.91797 -42.13281,-25.93945 z m -29.5957,4.33398 20.4668,0.44727 40.28125,24.79883 -53.58985,7.86328 -51.27148,-8.59571 z m 190.14453,4.51758 -34.90234,23.26172 -12.375,20.78711 -10.70508,5.89258 -29.12109,-49.24805 -28.20899,26.42773 -66.39453,10.16407 -62.92383,-9.3125 -28.28515,-26.125 -7.6836,8.94726 -47.68945,-1.8789 -30.099611,6.41211 -13.615234,32.85742 21.582031,37.30469 23.246094,19.27342 38.02344,20.4863 22.55273,30.3457 0.42774,1.1192 1.56836,0.3535 81.76171,18.4824 89.67188,-16.0586 0.36914,-1.1933 30.49414,-37.5391 45.5957,-35.33593 7.1543,-40.84961 20.44336,-21.41211 34.05859,-21.27344 z m 0.38477,6.95313 1.52539,1.64843 -23.80664,21.29297 -5.63086,-4.33789 z m 20.92383,2.625 -10.36133,6.4707 -1.10547,-4.75781 z m -109.76954,0.60937 25.41993,42.98828 -25.96094,19.32813 -21.24414,-41.90625 z m -183.95703,0.28906 22.71875,20.98242 -21.79492,42.13086 -23.64062,-24.89453 9.46875,-17.10156 20.26562,-4.86328 -9.99219,-12.79102 z m 276.82617,3.94141 1.2793,5.5 -18.0957,18.95312 -4.97656,-4.96093 z m -333.08984,0.71484 2.83008,1.97852 -24.277345,5.56445 -1.486328,-2.65625 z m 10.75,0.19532 37.1543,1.46484 3.25586,4.16601 -39.95118,-5.31054 z m 0.48438,6.375 30.42773,4.04687 -0.83203,0.19922 -30.59375,-3.17188 z m -38.369145,3.09375 1.007813,1.80078 -4.289063,21.375 -5.560547,-1.83985 z m 31.306645,3.38281 32.0371,3.32226 -10.04296,18.13672 0.56836,0.59766 -3.74805,37.33008 -18.91797,-9.33789 -12.083984,-14.40235 -8.896485,-17.05469 5.128907,-14.55078 z m 292.68554,1.64062 6.44336,4.96289 -9.14258,22.88868 -7.08203,-11.41993 z m -317.595701,0.42188 2.876953,1.16797 -4.789062,13.5957 -1.197266,0.73242 z m 233.785161,2.99805 21.12109,41.6621 -83.84961,17.56641 -0.31641,-49.57617 z m -128.66993,0.84765 59.625,8.82227 0.31641,49.5625 -81.89844,-15.93946 z m 223.65235,5.03711 5.07226,5.05664 -5.63867,32.19922 -9.31445,-12.52344 z m -25.51172,11.16016 8.17773,13.1914 -23.07226,16.19336 4.64843,-23.74609 z m -303.865236,0.95703 7.623047,14.61133 -0.61914,2.3125 -9.640625,-15.3086 z m -12.08789,2.05078 3.330078,1.10156 13.220703,20.9961 -2.160156,2.77539 z m 65.623046,2.68555 22.66797,23.86914 -2.08203,42.2168 -15.03516,-17.3555 -9.10547,-13.32615 z m 232.97266,5.03515 -4.92188,25.14844 0.72461,23.26175 -15.87305,11.6035 -3.35546,-42.57423 z m 28.91406,7.42188 10.97852,14.75976 -37.98438,29.43755 -0.0605,-1.8145 -0.002,-0.035 -0.70898,-22.85347 z m -303.19336,3.41015 8.70312,10.375 0.0293,0.0684 -9.441404,-7.80078 z m -3.634766,8.00586 16.246096,13.42774 -1.58008,4.02734 -17.169922,-14.23633 z m 248.644536,0.82032 3.43945,43.62888 -90.31641,21.5977 1.28125,-47.2949 z m -175.15039,1.64843 83.55468,16.25975 -1.28711,47.4297 -84.48633,-18.7129 z m -52.69922,4.56055 15.46484,7.63281 2.83203,4.14449 -16.92187,-8.49214 z m 0.63086,9.625 24.29492,12.1934 2.93554,7.7812 -28.94921,-15.5976 z m 252.52734,20.1777 0.0293,0.8946 -20.60743,25.3691 4.47461,-14.4922 z m -217.09766,4.5332 8.68555,10.0254 1.40234,3.6739 -9.99218,-13.4454 z m 194.00196,9.545 -7.24805,23.4687 -81.94727,14.6738 v -16.8105 z m -177.91407,3.0507 82.71875,18.3223 v 16.6016 l -75.93945,-17.166 z"
       id="path5950"
       inkscape:connector-curvature="0" />
  </g>
</svg>
