<?xml version="1.0" encoding="UTF-8" standalone="no"?>
<!-- Created with Inkscape (http://www.inkscape.org/) -->

<svg
   xmlns:dc="http://purl.org/dc/elements/1.1/"
   xmlns:cc="http://creativecommons.org/ns#"
   xmlns:rdf="http://www.w3.org/1999/02/22-rdf-syntax-ns#"
   xmlns:svg="http://www.w3.org/2000/svg"
   xmlns="http://www.w3.org/2000/svg"
   xmlns:sodipodi="http://sodipodi.sourceforge.net/DTD/sodipodi-0.dtd"
   xmlns:inkscape="http://www.inkscape.org/namespaces/inkscape"
   width="500"
   height="500"
   viewBox="0 0 500 500"
   version="1.1"
   id="svg8"
   inkscape:version="0.92.4 (5da689c313, 2019-01-14)"
   sodipodi:docname="hierarchy.svg">
  <defs
     id="defs2" />
  <sodipodi:namedview
     id="base"
     pagecolor="#ffffff"
     bordercolor="#666666"
     borderopacity="1.0"
     inkscape:pageopacity="0.0"
     inkscape:pageshadow="2"
     inkscape:zoom="2"
     inkscape:cx="100.64689"
     inkscape:cy="255.63629"
     inkscape:document-units="px"
     inkscape:current-layer="layer1"
     showgrid="true"
     units="px"
     inkscape:window-width="3000"
     inkscape:window-height="1890"
     inkscape:window-x="-12"
     inkscape:window-y="-12"
     inkscape:window-maximized="1"
     inkscape:pagecheckerboard="false"
     inkscape:object-paths="true"
     inkscape:object-nodes="true"
     inkscape:snap-grids="false"
     inkscape:snap-object-midpoints="true">
    <inkscape:grid
       type="xygrid"
       id="grid1358"
       spacingx="20"
       spacingy="20" />
  </sodipodi:namedview>
  <metadata
     id="metadata5">
    <rdf:RDF>
      <cc:Work
         rdf:about="">
        <dc:format>image/svg+xml</dc:format>
        <dc:type
           rdf:resource="http://purl.org/dc/dcmitype/StillImage" />
        <dc:title></dc:title>
      </cc:Work>
    </rdf:RDF>
  </metadata>
  <g
     inkscape:label="Layer 1"
     inkscape:groupmode="layer"
     id="layer1"
     transform="translate(0,-591.25001)">
    <path
       style="fill:#000000;stroke-width:1"
       d="m 249.81746,591.2505 c -42.27016,0 -48.84132,0.4838 -51.5749,3.77628 -2.36304,2.84613 -3.32873,15.04623 -3.91895,49.64887 -0.77938,45.69278 -0.75717,45.89343 4.59217,50.89276 4.26882,3.98949 8.6422,5.16036 21.32458,5.70677 l 15.95665,0.68659 v 13.69624 13.69624 l -41.65939,0.62418 -41.6594,0.61971 v 27.34345 27.33897 h -16.991 c -24.46454,0 -24.09772,-0.84558 -24.09772,55.68556 0,55.19634 -0.59297,53.88367 24.32064,53.88436 h 16.76808 v 14.83759 14.83759 H 111.7895 70.700785 v 27.39248 27.39248 l -16.549623,0.0356 c -9.102292,0.0183 -18.00601,0.95511 -19.78643,2.08208 -4.657319,2.94789 -6.680261,21.3294 -6.87041,62.4713 -0.163351,35.3427 -0.05282,36.1674 5.439261,41.6594 v 0 c 5.570247,5.5711 5.866359,5.5997 50.643094,5.5997 60.322213,0 55.605303,4.7705 55.605303,-56.234 0,-44.699 -0.17567,-46.47145 -4.99788,-50.96404 -4.01385,-3.73931 -8.05209,-4.65458 -20.54436,-4.65458 H 98.093264 V 965.60984 951.9136 h 69.622556 69.62254 v 13.69624 13.69624 l -16.54962,0.0356 c -9.10229,0.0183 -17.94713,0.92292 -19.65713,2.00629 -5.05268,3.20127 -6.96112,19.54303 -7.06658,60.58543 -0.13589,52.8403 -4.21199,49.2253 55.50721,49.2253 61.01643,-10e-5 56.24732,4.717 56.24732,-55.6054 0,-43.75879 -0.20763,-45.9031 -4.96221,-50.96409 -4.24793,-4.52158 -7.20915,-5.28321 -20.54436,-5.28321 h -15.58215 v -13.69162 -13.69624 h 69.62255 69.62255 v 13.69624 13.69624 l -16.54962,0.0356 c -9.10229,0.0183 -17.9078,0.89578 -19.56797,1.94834 -5.2914,3.35489 -7.1444,18.66135 -7.20033,59.50194 -0.0741,54.1698 -4.26876,50.3667 55.55181,50.3667 61.01643,2e-4 56.24731,4.7171 56.24731,-55.6053 0,-43.75878 -0.20772,-45.90309 -4.96221,-50.96408 -4.24794,-4.52158 -7.20916,-5.28321 -20.54436,-5.28321 h -15.58215 v -27.39247 -27.39248 h -42.33707 -22.8449 -19.49663 -27.17402 -26.33138 -43.39817 -69.73401 l 0.68214,-14.26691 0.67767,-14.26692 15.92545,-0.68659 c 24.75616,-1.06751 24.02192,0.62564 24.02192,-55.23972 0,-56.4163 0.73746,-54.78496 -24.71743,-54.78496 H 180.2707 v -13.69624 -13.69624 h 69.62255 69.62255 v 13.69624 13.69624 h -16.991 c -24.48406,0 -24.09772,-0.89687 -24.09772,56.08236 0,54.94333 -0.67327,53.48756 24.71743,53.48756 h 16.37129 l 28.53383,1.14135 15.92545,-0.68659 c 24.73764,-1.06671 24.02192,0.5722 24.02192,-54.84292 0,-56.66419 0.65507,-55.18176 -24.32064,-55.18176 H 346.90828 V 757.88808 730.4956 h -41.08872 -41.08872 v -14.83759 -14.83759 h 15.47069 c 26.28162,0 25.61803,1.40247 25.61803,-54.16525 0,-40.58365 -0.51812,-47.63139 -3.77627,-51.23161 -3.43386,-3.79436 -8.19224,-4.17306 -52.22583,-4.17306 z"
       id="path913"
       inkscape:connector-curvature="0" />
  </g>
</svg>
