<?xml version="1.0" encoding="UTF-8" standalone="no"?>
<!-- Created with Inkscape (http://www.inkscape.org/) -->

<svg
   xmlns:dc="http://purl.org/dc/elements/1.1/"
   xmlns:cc="http://creativecommons.org/ns#"
   xmlns:rdf="http://www.w3.org/1999/02/22-rdf-syntax-ns#"
   xmlns:svg="http://www.w3.org/2000/svg"
   xmlns="http://www.w3.org/2000/svg"
   xmlns:sodipodi="http://sodipodi.sourceforge.net/DTD/sodipodi-0.dtd"
   xmlns:inkscape="http://www.inkscape.org/namespaces/inkscape"
   width="500"
   height="500"
   viewBox="0 0 500 500"
   version="1.1"
   id="svg8"
   inkscape:version="0.92.4 (5da689c313, 2019-01-14)"
   sodipodi:docname="lock.svg">
  <defs
     id="defs2" />
  <sodipodi:namedview
     id="base"
     pagecolor="#ffffff"
     bordercolor="#666666"
     borderopacity="1.0"
     inkscape:pageopacity="0.0"
     inkscape:pageshadow="2"
     inkscape:zoom="0.35"
     inkscape:cx="387.1212"
     inkscape:cy="148.64753"
     inkscape:document-units="px"
     inkscape:current-layer="layer1"
     showgrid="true"
     units="px"
     inkscape:window-width="1291"
     inkscape:window-height="1008"
     inkscape:window-x="428"
     inkscape:window-y="0"
     inkscape:window-maximized="0"
     inkscape:pagecheckerboard="false">
    <inkscape:grid
       type="xygrid"
       id="grid1358"
       spacingx="20"
       spacingy="20" />
  </sodipodi:namedview>
  <metadata
     id="metadata5">
    <rdf:RDF>
      <cc:Work
         rdf:about="">
        <dc:format>image/svg+xml</dc:format>
        <dc:type
           rdf:resource="http://purl.org/dc/dcmitype/StillImage" />
        <dc:title></dc:title>
      </cc:Work>
    </rdf:RDF>
  </metadata>
  <g
     inkscape:label="Layer 1"
     inkscape:groupmode="layer"
     id="layer1"
     transform="translate(0,-591.25001)">
    <path
       style="fill:#000000;stroke-width:0.99999994"
       d="m 83.031604,1090.6387 c -5.42986,-1.4926 -11.39669,-6.2178 -13.97769,-11.0691 -2.62849,-4.9405 -2.44771,4.7922 -2.44771,-131.78289 0,-138.09823 -0.23487,-126.91329 2.77814,-132.30115 2.12721,-3.80378 6.61011,-7.79622 10.71665,-9.54422 3.16529,-1.34735 3.5028,-1.39919 10.17243,-1.56244 l 6.8985,-0.16822 v -33.00757 c 0,-32.31681 0.2088,-39.15364 1.4787,-48.41376 6.215696,-45.32563 33.052596,-85.92721 72.499996,-109.68511 25.1921,-15.17257 53.6279,-22.64745 82.883,-21.78761 23.6109,0.69401 43.5245,5.67229 64.3155,16.07841 22.6078,11.3154 41.7364,27.66623 56.1599,48.00453 16.7933,23.6798 26.0457,50.08915 28.0722,80.12548 0.1184,1.75109 0.2223,17.94142 0.2315,35.97846 l 0.017,32.79437 h 5.8541 c 6.47,0 9.4639,0.56355 13.0054,2.44785 2.7705,1.47404 7.7845,6.48784 9.2585,9.25841 2.6285,4.94051 2.4477,-4.79219 2.4477,131.78308 0,136.57508 0.1808,126.84238 -2.4477,131.78288 -1.612,3.0302 -6.5808,7.909 -9.4946,9.3228 -5.2671,2.556 7.9107,2.3765 -171.6645,2.3404 -135.1625,-0.028 -165.081636,-0.1339 -166.756766,-0.5941 z m 173.939716,-59.626 c 7.1513,-2.4822 12.573,-8.3078 14.4545,-15.532 0.5598,-2.1489 0.6501,-7.6495 0.6501,-39.57475 v -37.07914 l 2.5419,-2.35327 c 15.3199,-14.18347 15.8036,-37.85658 1.0745,-52.58559 -6.9908,-6.9908 -15.4977,-10.50722 -25.4793,-10.53194 -10.1892,-0.0258 -18.6983,3.40725 -25.7847,10.40148 -4.5842,4.52458 -7.571,9.52517 -9.5137,15.92736 -0.9889,3.2598 -1.1376,4.50089 -1.1596,9.68241 -0.029,6.99114 0.5864,9.90127 3.3246,15.70728 2.1302,4.5172 4.8589,8.24838 8.3275,11.38716 l 2.5184,2.27894 v 37.12222 c 0,31.96404 0.091,37.46894 0.6499,39.61784 2.0602,7.9095 8.6929,14.3597 16.6521,16.1937 3.215,0.7409 8.5728,0.439 11.7438,-0.6617 z m 84.7266,-260.23101 c 0,-36.86663 -0.098,-38.71762 -2.5923,-48.84188 -5.8018,-23.55106 -21.032,-44.10187 -42.1023,-56.81028 -8.0805,-4.87391 -18.199,-8.86944 -27.4947,-10.85724 -8.1246,-1.73736 -12.3632,-2.0848 -22.3939,-1.83555 -8.1078,0.20136 -9.9396,0.38331 -15.2701,1.51695 -13.845,2.94429 -26.1987,8.51873 -37.1828,16.77809 -4.2257,3.1774 -12.2472,10.87218 -15.5846,14.9501 -9.9163,12.11619 -16.3637,26.05127 -19.5943,42.34992 -0.9154,4.61814 -0.9415,5.60346 -1.0768,40.49944 l -0.139,35.76612 h 91.7151 91.7154 z"
       id="path916"
       inkscape:connector-curvature="0"
       sodipodi:nodetypes="ccsccccsccccccccsccscccccccsccccccccccsccccccccccccccccc" />
  </g>
</svg>
