<?xml version="1.0" encoding="utf-8"?>
<!-- Generator: Adobe Illustrator 23.0.3, SVG Export Plug-In . SVG Version: 6.00 Build 0)  -->
<svg version="1.1" id="Layer_1" xmlns="http://www.w3.org/2000/svg" xmlns:xlink="http://www.w3.org/1999/xlink" x="0px" y="0px"
	 viewBox="0 0 512 512" style="enable-background:new 0 0 512 512;" xml:space="preserve">
<g id="br7TAM.tif">
	<g>
		<path d="M104.04,6.34c8.14,0,16.28,0,24.42,0c2.3,0.91,4.63,1.75,6.89,2.74c15.36,6.75,26.15,17.76,29.73,34.4
			c1.49,6.93,4.42,9.13,11.34,9.1c60.59-0.22,121.18-0.21,181.76,0c6.72,0.02,10.3-1.81,13.25-8.37
			c14.77-32.81,57.07-39.98,82.6-14.53c15.09,15.04,21.17,45.37,2.49,68.07c-4.21,5.12-4.31,10-3.42,15.6
			c6.57,41.45,13.34,82.86,19.58,124.35c0.86,5.72,3.25,8.57,8,11.2c20.95,11.61,30.39,37.36,23.25,60.12
			c-6.68,21.29-28.69,37.98-54.73,34.24c-4.19-0.6-7.96,0.15-11.37,3.04c-32.2,27.25-64.33,54.58-96.83,81.45
			c-5.16,4.26-5.5,7.67-3.98,13.7c4.76,18.94,1.44,35.99-13.11,50.36c-15.53,15.35-33.89,17.57-53.22,11.16
			c-18.61-6.17-29.33-20.37-32.3-39.84c-0.6-3.94-1.87-6.68-5.14-8.87c-53.82-36.12-107.61-72.28-161.37-108.48
			c-3.39-2.28-6.95-3.31-10.89-2.43c-8.51,1.89-16.56-0.03-24.44-2.9c-16.89-6.16-26.25-19.1-31.55-35.6c0-7.69,0-15.38,0-23.07
			c4.91-16.73,14.66-29.52,31.2-35.83c4.98-1.9,7.01-4.71,8.47-9.27c14-43.61,28.06-87.2,42.28-130.74
			c1.45-4.45,0.96-7.05-2.81-10.34C62.59,76.87,59.5,49.48,75.47,25.66C82.45,15.24,93.06,10.63,104.04,6.34z M265.52,76.9
			c-28.69,0-57.38,0.27-86.07-0.15c-10.19-0.15-19.47-0.19-23.59,11.46c-0.28,0.78-1.11,1.43-1.8,2c-3.22,2.63-2.98,5.68-1.43,9.11
			c15.38,33.9,31.08,67.66,45.84,101.83c4.24,9.81,8.8,16.34,20.52,14.15c1.43-0.27,3.26,0.24,4.57,0.98
			c11.7,6.6,20.32,1.25,28.24-7.06c0.47-0.49,0.96-0.96,1.48-1.39c25.61-21.38,51.21-42.76,76.83-64.13
			c15.23-12.7,30.4-25.48,45.78-38c4.16-3.39,4.19-6.43,0.85-10.04c-2.98-3.22-5.21-7.05-6.29-11.11c-1.67-6.3-5.37-7.79-11.41-7.74
			C327.87,77.03,296.7,76.91,265.52,76.9z M408.07,114.93c-2.56-0.2-4.74,0.17-6.9,1.98c-16.06,13.49-32.24,26.83-48.34,40.27
			c-28.4,23.7-56.66,47.55-85.19,71.08c-11.63,9.59-11.71,9.24-6.8,23.61c1.45,4.26,3.78,6.34,8.13,6.7
			c15.95,1.33,31.89,2.79,47.83,4.13c28.3,2.39,56.64,4.45,84.89,7.32c5.93,0.6,9.19-0.62,12.15-5.52
			c6.64-11.03,16.93-17.29,29.11-20.54c9.18-2.45,9.4-2.76,7.78-12.43c-2.17-12.9-4.12-25.84-6.13-38.77
			c-3.74-24.07-7.46-48.15-11.16-72.22c-0.66-4.26-2.7-6.57-7.31-5.47C420.1,116.52,414.08,116.59,408.07,114.93z M268.06,282.62
			c-5.66-2.9-9.35,1.45-12.37,8.41c-1.66,3.82-4.71,7.15-7.56,10.31c-2.17,2.41-2.35,4.51-1.07,7.32
			c12.99,28.58,26.09,57.11,38.7,85.85c3.11,7.09,7.19,11.35,15.11,12.01c4.51,0.38,8.74,2.45,12.51,4.94
			c4.02,2.64,7.03,1.4,10.27-1.34c30.32-25.63,60.66-51.26,91.12-76.73c3.39-2.84,3.96-5.42,1.19-8.5
			c-5.99-6.65-8.78-14.78-10.26-23.24c-1.06-6.08-4.28-7.39-9.76-7.75c-17.55-1.16-35.08-2.73-52.6-4.3
			C319.1,287.43,294.86,285.11,268.06,282.62z M163.53,287.43c-19.02,2.86-36.4,5.5-53.79,8.06c-3.51,0.52-3.95,3.15-4.55,5.86
			c-1.72,7.78-4.13,15.52-9.25,21.56c-4.32,5.1-2.79,7.32,1.87,10.41c21.05,13.98,41.93,28.21,62.89,42.31
			c25.64,17.25,51.36,34.4,76.93,51.76c4.16,2.83,6.53,3.15,9.7-1.65c3.17-4.81,7.49-9.1,12.69-12.01c4.37-2.45,5.09-5.13,2.92-9.85
			c-12.34-26.84-24.51-53.77-36.34-80.84c-2.31-5.28-4.84-7.65-10.89-7.28c-20.34,1.24-36.5-6.26-47.4-24
			C166.92,289.51,165.29,287.08,163.53,287.43z M106.12,271.12c16.73-2.45,33.48-4.83,50.19-7.4c3.91-0.6,5.32-3.62,5.85-7.32
			c1.56-10.89,6.48-20.25,14.49-27.59c4.15-3.8,4.33-7.05,2.19-11.75c-15.96-34.9-31.74-69.87-47.66-104.79
			c-1.3-2.84-1.75-7.19-6.71-5.92c-5.18,1.33-11.64-1.24-14.07,7.25c-5.28,18.44-11.66,36.56-17.61,54.81
			c-7.35,22.54-14.76,45.06-22.02,67.63c-1.2,3.72-3.12,7.84,2.8,9.99c11.01,3.99,19.51,11.12,25.23,21.41
			C100.44,270.36,102.76,271.65,106.12,271.12z"/>
	</g>
</g>
</svg>
