<?xml version="1.0" encoding="UTF-8" standalone="no"?>
<!-- Created with Inkscape (http://www.inkscape.org/) -->

<svg
   xmlns:dc="http://purl.org/dc/elements/1.1/"
   xmlns:cc="http://creativecommons.org/ns#"
   xmlns:rdf="http://www.w3.org/1999/02/22-rdf-syntax-ns#"
   xmlns:svg="http://www.w3.org/2000/svg"
   xmlns="http://www.w3.org/2000/svg"
   xmlns:sodipodi="http://sodipodi.sourceforge.net/DTD/sodipodi-0.dtd"
   xmlns:inkscape="http://www.inkscape.org/namespaces/inkscape"
   width="500"
   height="500"
   viewBox="0 0 500 500"
   version="1.1"
   id="svg8"
   inkscape:version="0.92.4 (5da689c313, 2019-01-14)"
   sodipodi:docname="protest.svg">
  <defs
     id="defs2" />
  <sodipodi:namedview
     id="base"
     pagecolor="#ffffff"
     bordercolor="#666666"
     borderopacity="1.0"
     inkscape:pageopacity="0.0"
     inkscape:pageshadow="2"
     inkscape:zoom="2"
     inkscape:cx="100.64689"
     inkscape:cy="255.63629"
     inkscape:document-units="px"
     inkscape:current-layer="layer1"
     showgrid="true"
     units="px"
     inkscape:window-width="4480"
     inkscape:window-height="1780"
     inkscape:window-x="6"
     inkscape:window-y="-12"
     inkscape:window-maximized="1"
     inkscape:pagecheckerboard="false"
     inkscape:object-paths="true"
     inkscape:object-nodes="true"
     inkscape:snap-grids="false"
     inkscape:snap-object-midpoints="true">
    <inkscape:grid
       type="xygrid"
       id="grid1358"
       spacingx="20"
       spacingy="20" />
  </sodipodi:namedview>
  <metadata
     id="metadata5">
    <rdf:RDF>
      <cc:Work
         rdf:about="">
        <dc:format>image/svg+xml</dc:format>
        <dc:type
           rdf:resource="http://purl.org/dc/dcmitype/StillImage" />
        <dc:title></dc:title>
      </cc:Work>
    </rdf:RDF>
  </metadata>
  <g
     inkscape:label="Layer 1"
     inkscape:groupmode="layer"
     id="layer1"
     transform="translate(0,-591.25001)">
    <path
       style="fill:#000000;stroke-width:1"
       d="m 234.71772,1088.7162 c -64.13075,-2.5546 -108.7663,-12.966 -120.27462,-28.0541 -4.42387,-5.8 -4.77235,-11.8837 -1.42144,-24.8153 9.91325,-38.25639 51.47853,-79.32365 96.16407,-95.01167 4.01217,-1.40849 9.13017,-3.23848 11.37333,-4.06659 l 4.07847,-1.50565 -10.01486,-9.77934 C 186.93368,898.44553 173.9205,860.09644 181.5098,827.9018 c 5.58441,-23.68967 22.29345,-45.03059 43.43443,-55.4748 12.09736,-5.97641 28.60887,-10.37268 38.95774,-10.37268 6.65169,0 23.08183,3.53766 31.36303,6.75293 9.67169,3.75516 24.75516,14.62896 31.59602,22.77785 9.13853,10.88589 11.36813,14.77834 16.0521,28.02391 12.23672,34.60366 -1.78062,80.51424 -33.10726,108.43518 l -8.10198,7.22118 4.07541,1.45663 c 35.6001,12.72427 55.9392,25.12931 76.3456,46.56421 21.69202,22.78529 33.50519,46.17039 33.50519,66.32609 0,8.0897 -0.21689,8.556 -6.58846,14.1644 -15.01018,13.2126 -58.56211,22.7617 -111.38522,24.4223 -13.35179,0.4198 -26.90211,0.9498 -30.11184,1.1779 -3.20974,0.2279 -17.98182,-0.069 -32.82684,-0.6607 z M 75.689906,1052.2901 c -25.56897,-3.7466 -45.90017,-11.5766 -47.59514,-18.3299 -5.65694,-22.5391 25.70177,-60.78549 60.91999,-74.30084 5.91149,-2.26856 10.95139,-4.25597 11.199754,-4.41645 0.24837,-0.16049 -2.759064,-3.50241 -6.683184,-7.4266 -14.45007,-14.45009 -21.09316,-30.11462 -21.23706,-50.07771 -0.0875,-12.14925 0.38094,-14.8575 3.79544,-21.93894 7.89989,-16.38385 20.57635,-26.90799 37.823914,-31.40186 10.14372,-2.64297 18.34398,-2.21255 29.39202,1.5428 3.88765,1.32145 7.38186,2.08923 7.76492,1.70618 0.38306,-0.38307 -0.8914,-3.22052 -2.83214,-6.30545 -1.94072,-3.08494 -6.68474,-11.18955 -10.54225,-18.01024 -3.85752,-6.82069 -8.55364,-14.84943 -10.43585,-17.84165 l -3.42216,-5.44038 -10.57865,6.29879 c -34.778414,20.70801 -60.702974,35.23054 -61.382644,34.38562 -0.83938,-1.04339 -10.6942,-17.75103 -14.13714,-23.96775 -3.42192,-6.1788 -13.41762,-23.40234 -28.5573596,-49.20711 L -3.5831958e-6,751.90784 13.407196,744.03638 c 7.37395,-4.32929 29.16408,-16.90616 48.42249,-27.94859 19.25841,-11.04244 35.67183,-20.55808 36.47427,-21.14589 0.80243,-0.5878 4.413384,-2.70459 8.024344,-4.70398 3.61095,-1.99939 15.9253,-9.01698 27.36524,-15.59463 11.43993,-6.57767 21.33496,-11.62869 21.98895,-11.22449 0.654,0.40418 5.67614,8.48285 11.16032,17.95259 5.48418,9.46974 14.13632,24.29824 19.22697,32.95222 5.09066,8.65399 9.25573,16.02847 9.25573,16.38773 0,0.35926 2.62615,4.94383 5.83588,10.18791 3.20974,5.24408 5.83588,10.06873 5.83588,10.72143 0,0.65272 -1.80547,2.11835 -4.01217,3.25699 -2.20669,1.13864 -10.57753,5.91384 -18.60187,10.61155 -8.02434,4.69771 -18.20066,10.55203 -22.61405,13.00963 -14.48323,8.06495 -25.53575,15.14976 -25.3215,16.23138 0.1157,0.58442 3.32017,6.43803 7.1209,13.00801 17.8837,30.9139 16.19611,26.49324 17.12309,44.85423 0.89835,17.79393 6.08042,37.13906 13.60832,50.80102 4.75086,8.62216 4.43927,13.33988 -1.63594,24.77019 -6.73571,12.67276 -6.83708,12.78773 -19.94177,22.59435 -33.07223,24.74928 -56.028584,58.66167 -59.908724,88.50067 -0.78259,6.0183 -1.65227,11.763 -1.93263,12.766 -0.55753,1.9947 -3.08715,2.0389 -15.19102,0.2654 z m 12.22326,-245.95899 c 30.693384,-17.77359 83.282904,-48.08508 93.903094,-54.12375 7.74488,-4.40375 8.30052,-5.33016 5.66384,-9.44318 -1.17194,-1.82815 -3.9895,-6.63905 -6.26126,-10.6909 -17.13467,-30.56099 -29.15489,-50.71902 -30.5668,-51.26081 -0.91767,-0.35215 -6.17777,2.12092 -11.68909,5.49573 -5.51134,3.3748 -14.94464,8.87897 -20.96289,12.2315 -13.31131,7.4152 -61.845644,35.44102 -84.028264,48.52157 l -16.18615,9.54455 12.3116,21.32613 c 6.77138,11.72937 15.36821,26.74051 19.10407,33.35811 3.73587,6.61758 7.36893,12.03401 8.07346,12.03651 0.70454,0.003 14.49181,-7.64548 30.63839,-16.99546 z M 436.05567,1049.7555 c 0,-8.8344 -4.88451,-26.232 -10.9395,-38.9642 -10.78282,-22.67359 -31.69775,-46.68048 -55.71961,-63.95688 -8.18481,-5.88651 -14.41765,-14.80578 -18.67548,-26.72513 l -2.69281,-7.53836 5.58606,-11.42832 c 5.41062,-11.06943 12.41075,-34.10394 12.41075,-40.83863 0,-6.52728 11.11124,-13.35512 27.10549,-16.6563 7.67357,-1.58381 10.22883,-1.49063 18.96662,0.6917 25.07454,6.26253 40.84725,24.44078 42.53518,49.0223 1.36714,19.90985 -5.38697,37.72213 -20.06089,52.90535 l -8.61986,8.91898 8.3347,2.87169 c 31.33605,10.79651 57.41177,36.59401 64.71504,64.0243 2.30838,8.6701 0.69921,13.7677 -5.70924,18.0864 -7.39213,4.9815 -29.25985,10.7827 -48.84737,12.9583 l -8.38908,0.9317 z M 356.86795,802.25096 c -1.42547,-2.99315 -5.03642,-9.15851 -8.02434,-13.7008 l -5.43258,-8.2587 -0.72948,-28.44993 -0.72949,-28.44993 -54.36181,-0.38252 -54.36184,-0.38251 0.37992,-64.54168 0.3799,-64.54168 115.25869,-0.40164 c 63.39227,-0.22089 116.73589,-0.0442 118.54137,0.39255 l 3.28268,0.79416 v 64.16691 64.16692 h -54.7114 c -30.09127,0 -54.85021,0.16414 -55.01987,0.36475 -0.16965,0.2006 -0.66205,19.33257 -1.09423,42.51547 -0.77781,41.72395 -0.81201,42.09562 -3.37752,36.70863 z"
       id="path845"
       inkscape:connector-curvature="0" />
  </g>
</svg>
