<?xml version="1.0" encoding="UTF-8" standalone="no"?>
<!-- Created with Inkscape (http://www.inkscape.org/) -->

<svg
   xmlns:dc="http://purl.org/dc/elements/1.1/"
   xmlns:cc="http://creativecommons.org/ns#"
   xmlns:rdf="http://www.w3.org/1999/02/22-rdf-syntax-ns#"
   xmlns:svg="http://www.w3.org/2000/svg"
   xmlns="http://www.w3.org/2000/svg"
   xmlns:sodipodi="http://sodipodi.sourceforge.net/DTD/sodipodi-0.dtd"
   xmlns:inkscape="http://www.inkscape.org/namespaces/inkscape"
   width="500"
   height="500"
   viewBox="0 0 500 500"
   version="1.1"
   id="svg8"
   inkscape:version="0.92.4 (5da689c313, 2019-01-14)"
   sodipodi:docname="geometry.svg">
  <defs
     id="defs2" />
  <sodipodi:namedview
     id="base"
     pagecolor="#ffffff"
     bordercolor="#666666"
     borderopacity="1.0"
     inkscape:pageopacity="0.0"
     inkscape:pageshadow="2"
     inkscape:zoom="2.1459759"
     inkscape:cx="299.33275"
     inkscape:cy="282.33923"
     inkscape:document-units="px"
     inkscape:current-layer="layer1"
     showgrid="true"
     units="px"
     inkscape:window-width="4480"
     inkscape:window-height="1780"
     inkscape:window-x="749"
     inkscape:window-y="-12"
     inkscape:window-maximized="1"
     inkscape:pagecheckerboard="false"
     inkscape:snap-global="true"
     inkscape:snap-grids="false"
     inkscape:object-paths="true"
     inkscape:object-nodes="false">
    <inkscape:grid
       type="xygrid"
       id="grid1358"
       spacingx="20"
       spacingy="20" />
  </sodipodi:namedview>
  <metadata
     id="metadata5">
    <rdf:RDF>
      <cc:Work
         rdf:about="">
        <dc:format>image/svg+xml</dc:format>
        <dc:type
           rdf:resource="http://purl.org/dc/dcmitype/StillImage" />
        <dc:title />
      </cc:Work>
    </rdf:RDF>
  </metadata>
  <g
     inkscape:label="Layer 1"
     inkscape:groupmode="layer"
     id="layer1"
     transform="translate(0,-591.25001)">
    <path
       style="color:#000000;font-style:normal;font-variant:normal;font-weight:normal;font-stretch:normal;font-size:medium;line-height:normal;font-family:sans-serif;font-variant-ligatures:normal;font-variant-position:normal;font-variant-caps:normal;font-variant-numeric:normal;font-variant-alternates:normal;font-feature-settings:normal;text-indent:0;text-align:start;text-decoration:none;text-decoration-line:none;text-decoration-style:solid;text-decoration-color:#000000;letter-spacing:normal;word-spacing:normal;text-transform:none;writing-mode:lr-tb;direction:ltr;text-orientation:mixed;dominant-baseline:auto;baseline-shift:baseline;text-anchor:start;white-space:normal;shape-padding:0;clip-rule:nonzero;display:inline;overflow:visible;visibility:visible;opacity:1;isolation:auto;mix-blend-mode:normal;color-interpolation:sRGB;color-interpolation-filters:linearRGB;solid-color:#000000;solid-opacity:1;vector-effect:none;fill:#000000;fill-opacity:1;fill-rule:nonzero;stroke:none;stroke-width:17.99999809;stroke-linecap:butt;stroke-linejoin:miter;stroke-miterlimit:4;stroke-dasharray:none;stroke-dashoffset:0;stroke-opacity:1;color-rendering:auto;image-rendering:auto;shape-rendering:auto;text-rendering:auto;enable-background:accumulate"
       d="m 248.87083,593.62368 c -8.97652,0.076 -17.89267,0.6688 -26.71022,1.7281 -3.22205,0.1485 -6.52635,0.42 -9.906,0.76145 -18.92258,1.91135 -41.2343,8.40205 -64.446,20.35428 -0.4955,0.2375 -17.49778,8.39995 -34.98898,19.499 -8.87355,5.63068 -17.85298,11.92458 -25.32288,19.03998 -2.09235,1.993 -4.22535,4.0729 -6.2169,6.3177 -65.57455,59.4618 -101.97093,151.53225 -68.80965,258.55618 12.28955,39.6625 31.30418,71.37225 54.39405,96.10373 l -0.1735,0.17 c 0,0 0.77605,0.71 1.9019,1.6865 27.35735,28.637 60.26103,47.6535 94.46986,58.5385 64.06235,20.384 132.22795,13.958 182.52468,-5.6815 51.71075,-20.192 101.47868,-68.33 130.36975,-129.22923 17.6904,-37.2895 27.19603,-79.89048 23.09763,-123.35993 2e-4,0 0.005,-0.17 0.005,-0.17 h -0.02 c -2.612,-27.46765 -10.64513,-55.27792 -25.52458,-82.3179 C 417.79214,634.35696 330.98269,592.93063 248.87003,593.62368 Z m 15.86901,31.53283 c 47.08622,2.7523 95.07427,22.21693 135.8008,64.2444 -0.398,2.03165 -0.93955,4.4496 -1.90535,7.75715 -2.74755,9.40855 -8.24505,23.03203 -19.42248,38.89363 -2.9102,4.12975 -6.21775,8.41995 -9.9581,12.82657 -40.22147,-50.73715 -81.57775,-81.27162 -118.33593,-99.25762 2.7693,-2.91045 5.26965,-5.88525 7.4303,-8.995 2.61355,-3.76143 4.92321,-7.72178 6.06046,-13.16038 0.1515,-0.7243 0.258,-1.50225 0.3305,-2.30875 z m -44.27258,2.58345 c 1.5646,-0.002 3.02775,0.0695 4.37755,0.188 0.81815,0.0715 1.2959,0.217 2.03055,0.3165 -2.4118,2.4591 -5.343,5.18105 -8.75505,7.9936 -3.0825,-1.01115 -6.11315,-1.9411 -9.0819,-2.7851 -2.68563,-0.7635 -5.31873,-1.4464 -7.91363,-2.0827 5.49105,-1.40285 11.05408,-2.58425 16.67218,-3.55 0.91905,-0.0505 1.81195,-0.0785 2.6703,-0.08 z m -91.74038,36.75178 c -3.4919,4.68085 -7.01615,9.56045 -10.54225,14.69027 -0.93845,0.095 -1.9195,0.219 -2.80245,0.278 -2.61995,0.1755 -4.7026,0.053 -6.6515,-0.0765 6.3836,-5.29022 13.0753,-10.24132 19.9962,-14.89192 z m 94.65763,7.80585 c 35.97272,14.74957 79.3618,43.36355 122.88033,99.14988 0.089,0.114 0.172,0.2235 0.2605,0.3375 -24.8639,21.69822 -61.21503,44.50597 -114.51468,64.51545 -20.7612,-58.86265 -33.16048,-108.90193 -40.47913,-145.52936 11.00315,-5.2467 21.90528,-11.63775 31.85273,-18.47322 z m -62.0608,30.10377 c 7.71855,37.52283 20.20162,86.98763 40.40607,144.37156 -51.56662,16.31697 -87.91915,19.97197 -113.17953,18.02847 -2.1017,-58.35295 22.85488,-113.81138 50.11386,-156.40568 7.4434,-1.5559 15.06095,-3.601 22.6596,-5.99435 z m -77.89506,1.3456 c 2.40895,2.0278 5.015,3.63595 7.6007,4.65915 2.4798,0.9813 4.96045,1.6761 7.45465,2.18705 -23.4758,41.3642 -42.60062,92.05028 -42.25587,147.06973 -11.608,-4.86747 -17.7851,-10.81947 -21.2583,-15.26397 -1.9312,-2.4715 -2.82515,-3.994 -3.2788,-4.92 0.2635,-52.93053 20.19095,-98.26478 51.73762,-133.73196 z m 341.59697,14.94408 c 7.15435,9.9086 13.9799,20.68345 20.4169,32.38122 12.15105,22.08176 19.00397,44.55073 21.56777,66.80668 -0.02,1.39898 -0.6394,27.43648 -17.26672,61.89043 -10.9653,-27.98195 -29.78508,-62.42343 -60.73263,-104.86925 6.2988,-6.95325 11.73965,-13.7842 16.39405,-20.3891 9.28575,-13.17713 15.4644,-25.37738 19.62063,-35.81998 z m -59.28271,78.73995 c 38.64413,53.75643 55.43508,92.22088 61.91131,118.18988 -23.45998,30.5385 -61.10471,61.883 -122.77601,83.78475 -18.70865,-35.12475 -42.62658,-83.33825 -61.7896,-133.03973 55.22455,-20.73347 94.64548,-44.95297 122.6543,-68.9349 z m -152.9424,79.4459 c 18.88985,49.18198 42.13057,96.66248 60.92038,132.27471 -54.66118,14.943 -95.26411,14.7915 -124.26418,9.666 -21.59878,-22.93348 -45.38648,-60.39373 -56.99136,-121.60373 29.99213,1.3 69.10751,-3.9795 120.33516,-20.33698 z m -176.52683,6.79398 c 2.54425,1.33 5.23865,2.603 8.1153,3.79 4.49305,1.8535 9.38555,3.5025 14.68685,4.9095 0.02,0.135 0.035,0.27 0.059,0.405 7.14182,44.0635 20.37187,78.58 35.66002,105.30725 -3.5733,-2.5955 -5.18075,-4.322 -5.18075,-4.322 l -0.1355,0.13 C 70.02645,972.81487 53.95838,945.49437 43.08163,910.39087 c -2.80985,-9.0685 -5.0605,-17.9755 -6.80795,-26.724 z m 387.63584,82.846 c -25.53028,35.17923 -58.88531,62.19373 -89.97758,74.33473 -1.64755,0.643 -3.333,1.2635 -5.0347,1.874 -2.38695,-4.1165 -4.95435,-8.575 -8.48385,-14.8675 44.48197,-16.495 78.16095,-38.17898 103.49613,-61.34123 z m -134.54216,71.50773 c 2.78815,5.0155 5.3333,9.5455 7.5868,13.4945 -28.43552,5.7135 -60.68105,7.062 -92.41493,1.8775 24.67753,-1.485 52.8928,-6.125 84.82813,-15.372 z"
       id="path844"
       inkscape:connector-curvature="0" />
  </g>
</svg>
