<?xml version="1.0" encoding="UTF-8" standalone="no"?>
<!-- Created with Inkscape (http://www.inkscape.org/) -->

<svg
   xmlns:dc="http://purl.org/dc/elements/1.1/"
   xmlns:cc="http://creativecommons.org/ns#"
   xmlns:rdf="http://www.w3.org/1999/02/22-rdf-syntax-ns#"
   xmlns:svg="http://www.w3.org/2000/svg"
   xmlns="http://www.w3.org/2000/svg"
   xmlns:sodipodi="http://sodipodi.sourceforge.net/DTD/sodipodi-0.dtd"
   xmlns:inkscape="http://www.inkscape.org/namespaces/inkscape"
   width="500"
   height="500"
   viewBox="0 0 500 500"
   version="1.1"
   id="svg8"
   inkscape:version="0.92.4 (5da689c313, 2019-01-14)"
   sodipodi:docname="tables.svg">
  <defs
     id="defs2" />
  <sodipodi:namedview
     id="base"
     pagecolor="#ffffff"
     bordercolor="#666666"
     borderopacity="1.0"
     inkscape:pageopacity="0.0"
     inkscape:pageshadow="2"
     inkscape:zoom="1.4"
     inkscape:cx="187.2972"
     inkscape:cy="285.91191"
     inkscape:document-units="px"
     inkscape:current-layer="layer1"
     showgrid="true"
     units="px"
     inkscape:window-width="3000"
     inkscape:window-height="1890"
     inkscape:window-x="-12"
     inkscape:window-y="-12"
     inkscape:window-maximized="1"
     inkscape:pagecheckerboard="false">
    <inkscape:grid
       type="xygrid"
       id="grid1358"
       spacingx="20"
       spacingy="20" />
  </sodipodi:namedview>
  <metadata
     id="metadata5">
    <rdf:RDF>
      <cc:Work
         rdf:about="">
        <dc:format>image/svg+xml</dc:format>
        <dc:type
           rdf:resource="http://purl.org/dc/dcmitype/StillImage" />
        <dc:title />
      </cc:Work>
    </rdf:RDF>
  </metadata>
  <g
     inkscape:label="Layer 1"
     inkscape:groupmode="layer"
     id="layer1"
     transform="translate(0,-591.25001)">
    <g
       id="g4542"
       transform="translate(-28.819645,28.76573)">
      <path
         inkscape:connector-curvature="0"
         id="rect1097"
         d="m 444.90373,562.4905 c -133.28557,0.71147 -266.59706,-0.13463 -399.878941,0.41492 -6.950321,-1.18735 -14.44382,2.62329 -15.637169,9.97601 -1.402397,12.87265 0.313957,25.95759 -0.317903,38.91746 0.267847,79.52366 -0.855865,159.14436 0.648965,238.60754 3.62413,10.23848 16.481905,8.85529 25.140741,8.29548 19.180923,-0.6527 38.923742,2.00535 57.743007,-1.50099 5.29493,-6.04221 6.35491,-19.63881 -2.7027,-22.76272 -16.021967,-1.43655 -32.085434,0.21493 -48.178372,-0.48556 -10.389902,3.25735 -7.679197,-6.58591 -7.837345,-13.56031 0,-62.52807 0,-125.05616 0,-187.58423 36.917109,0 73.834217,0 110.751327,0 0.21927,48.95785 -0.49971,97.92048 0.3752,146.87462 4.44952,8.58839 20.61903,8.84844 24.17638,-0.76144 0.68297,-48.70189 0.11997,-97.40902 0.29573,-146.11318 36.91859,0 73.83717,0 110.75575,0 0.21927,48.95785 -0.49971,97.92048 0.3752,146.87462 4.44952,8.58839 20.61903,8.84844 24.17638,-0.76144 0.68297,-48.70189 0.11997,-97.40902 0.29573,-146.11318 36.91859,0 73.83717,0 110.75575,0 0.21927,48.95785 -0.49971,97.92048 0.3752,146.87462 4.44855,8.59097 20.63582,8.84959 24.17638,-0.77247 0.38354,-69.04739 0.72726,-138.17471 -0.18982,-207.17429 -1.67333,-6.64595 -9.04318,-9.53526 -15.29949,-9.24546 z m -280.27722,25.11658 c -0.73794,6.41888 1.48609,15.79974 -1.13002,20.34046 -36.53749,0 -73.074987,0 -109.612477,0 0.737941,-6.41889 -1.486089,-15.79975 1.130025,-20.34046 36.537491,0 73.074982,0 109.612472,0 z m 135.60306,0 c -0.73794,6.41888 1.48609,15.79974 -1.13002,20.34046 -36.53749,0 -73.07499,0 -109.61248,0 0.73794,-6.41889 -1.48608,-15.79975 1.13003,-20.34046 36.53749,0 73.07498,0 109.61247,0 z m 135.60306,0 c -0.73794,6.41888 1.48609,15.79974 -1.13002,20.34046 -36.53749,0 -73.07499,0 -109.61248,0 0.73794,-6.41889 -1.48608,-15.79975 1.13003,-20.34046 36.53749,0 73.07498,0 109.61247,0 z M 83.611188,653.05366 c -6.855488,0.15479 -16.537416,-0.93573 -19.442178,7.07369 -3.954226,7.94161 2.293531,19.12303 11.690014,17.53262 24.117328,0.42955 48.423846,1.12629 72.428476,-0.56017 11.31847,-4.09957 8.30161,-24.4233 -4.23319,-23.74599 -20.1509,-0.53285 -40.29366,0.11278 -60.443122,-0.30015 z m 135.603062,0 c -6.85548,0.15479 -16.53742,-0.93573 -19.44218,7.07369 -3.95422,7.94161 2.29353,19.12303 11.69001,17.53262 24.11733,0.42955 48.42385,1.12629 72.42848,-0.56017 11.31847,-4.09957 8.30161,-24.4233 -4.23319,-23.74599 -20.1509,-0.53285 -40.29366,0.11278 -60.44312,-0.30015 z m 135.60306,0 c -6.85548,0.15479 -16.53742,-0.93573 -19.44218,7.07369 -3.95422,7.94161 2.29353,19.12303 11.69001,17.53262 24.11733,0.42955 48.42385,1.12629 72.42848,-0.56017 11.31847,-4.09957 8.30161,-24.4233 -4.23319,-23.74599 -20.1509,-0.53285 -40.29366,0.11278 -60.44312,-0.30015 z M 83.611188,698.25468 c -6.855488,0.15479 -16.537416,-0.93573 -19.442178,7.07369 -3.954226,7.94161 2.293531,19.12303 11.690014,17.53262 24.117328,0.42955 48.423846,1.12629 72.428476,-0.56017 11.31847,-4.09957 8.30161,-24.4233 -4.23319,-23.74599 -20.1509,-0.53285 -40.29366,0.11278 -60.443122,-0.30015 z m 135.603062,0 c -6.85548,0.15479 -16.53742,-0.93573 -19.44218,7.07369 -3.95422,7.94161 2.29353,19.12303 11.69001,17.53262 24.11733,0.42955 48.42385,1.12629 72.42848,-0.56017 11.31847,-4.09957 8.30161,-24.4233 -4.23319,-23.74599 -20.1509,-0.53285 -40.29366,0.11278 -60.44312,-0.30015 z m 135.60306,0 c -6.85548,0.15479 -16.53742,-0.93573 -19.44218,7.07369 -3.95422,7.94161 2.29353,19.12303 11.69001,17.53262 24.11733,0.42955 48.42385,1.12629 72.42848,-0.56017 11.31847,-4.09957 8.30161,-24.4233 -4.23319,-23.74599 -20.1509,-0.53285 -40.29366,0.11278 -60.44312,-0.30015 z M 83.611188,743.4557 c -6.855488,0.15479 -16.537416,-0.93573 -19.442178,7.07369 -3.954226,7.94161 2.293531,19.12303 11.690014,17.53262 24.117328,0.42955 48.423846,1.12629 72.428476,-0.56017 11.31847,-4.09957 8.30161,-24.4233 -4.23319,-23.74599 -20.1509,-0.53285 -40.29366,0.11278 -60.443122,-0.30015 z m 135.603062,0 c -6.85548,0.15479 -16.53742,-0.93573 -19.44218,7.07369 -3.95422,7.94161 2.29353,19.12303 11.69001,17.53262 24.11733,0.42955 48.42385,1.12629 72.42848,-0.56017 11.31847,-4.09957 8.30161,-24.4233 -4.23319,-23.74599 -20.1509,-0.53285 -40.29366,0.11278 -60.44312,-0.30015 z m 135.60306,0 c -6.85548,0.15479 -16.53742,-0.93573 -19.44218,7.07369 -3.95422,7.94161 2.29353,19.12303 11.69001,17.53262 24.11733,0.42955 48.42385,1.12629 72.42848,-0.56017 11.31847,-4.09957 8.30161,-24.4233 -4.23319,-23.74599 -20.1509,-0.53285 -40.29366,0.11278 -60.44312,-0.30015 z M 82.61138,788.58609 c -7.032746,-0.29121 -16.954883,0.0169 -18.947791,8.48842 -2.854029,7.84074 3.518628,17.80399 12.299539,16.2653 12.290279,-0.0749 25.628792,2.1034 37.391412,-1.82166 4.44792,-6.60916 5.47137,-20.37444 -4.50097,-22.71577 -8.74139,0.2088 -17.492757,-0.17265 -26.24219,-0.21629 z"
         style="color:#000000;font-style:normal;font-variant:normal;font-weight:normal;font-stretch:normal;font-size:medium;line-height:normal;font-family:sans-serif;font-variant-ligatures:normal;font-variant-position:normal;font-variant-caps:normal;font-variant-numeric:normal;font-variant-alternates:normal;font-feature-settings:normal;text-indent:0;text-align:start;text-decoration:none;text-decoration-line:none;text-decoration-style:solid;text-decoration-color:#000000;letter-spacing:normal;word-spacing:normal;text-transform:none;writing-mode:lr-tb;direction:ltr;text-orientation:mixed;dominant-baseline:auto;baseline-shift:baseline;text-anchor:start;white-space:normal;shape-padding:0;clip-rule:nonzero;display:inline;overflow:visible;visibility:visible;opacity:1;isolation:auto;mix-blend-mode:normal;color-interpolation:sRGB;color-interpolation-filters:linearRGB;solid-color:#000000;solid-opacity:1;vector-effect:none;fill:#000000;fill-opacity:1;fill-rule:nonzero;stroke:none;stroke-width:10;stroke-linecap:butt;stroke-linejoin:round;stroke-miterlimit:4;stroke-dasharray:none;stroke-dashoffset:0;stroke-opacity:1;color-rendering:auto;image-rendering:auto;shape-rendering:auto;text-rendering:auto;enable-background:accumulate" />
      <path
         inkscape:connector-curvature="0"
         id="rect1195"
         d="m 512.68099,765.91054 c -133.27945,0.67558 -266.58057,-0.14012 -399.85467,0.39947 -6.94994,-1.18718 -14.44374,2.62366 -15.63717,9.97601 -1.402397,12.87265 0.313957,25.95759 -0.317903,38.91746 0.267847,79.52366 -0.855865,159.14436 0.648965,238.60752 3.611618,10.2286 16.451508,8.8435 25.094518,8.3147 132.26939,-0.088 264.59892,0.6405 396.83096,-0.3847 10.43118,-3.0226 9.79633,-16.0584 8.94378,-24.6751 -0.16296,-87.45946 0.86183,-174.99952 -0.53701,-262.40871 -1.88783,-6.39187 -9.07511,-9.02601 -15.17147,-8.74665 z m -280.25295,25.10113 c -0.73794,6.41888 1.48609,15.79974 -1.13002,20.34046 -36.53749,0 -73.07499,0 -109.61248,0 0.73794,-6.41889 -1.48608,-15.79975 1.13003,-20.34046 36.53749,0 73.07498,0 109.61247,0 z m 135.60306,0 c -0.73794,6.41888 1.48609,15.79974 -1.13002,20.34046 -36.53749,0 -73.07499,0 -109.61248,0 0.73794,-6.41889 -1.48608,-15.79975 1.13003,-20.34046 36.53749,0 73.07498,0 109.61247,0 z m 135.60306,0 c -0.73794,6.41888 1.48609,15.79974 -1.13002,20.34046 -36.53749,0 -73.07499,0 -109.61248,0 0.73794,-6.41889 -1.48608,-15.79975 1.13003,-20.34046 36.53749,0 73.07498,0 109.61247,0 z m -271.20612,45.20102 c 0,67.04817 0,134.09636 0,201.14451 -36.91417,0 -73.82833,0 -110.7425,0 0,-67.04815 0,-134.09634 0,-201.14451 36.91417,0 73.82833,0 110.7425,0 z m 135.60306,0 c 0,67.04817 0,134.09636 0,201.14451 -36.91417,0 -73.82833,0 -110.7425,0 0,-67.04815 0,-134.09634 0,-201.14451 36.91417,0 73.82833,0 110.7425,0 z m 135.60306,0 c 0,67.04817 0,134.09636 0,201.14451 -36.91417,0 -73.82833,0 -110.7425,0 0,-67.04815 0,-134.09634 0,-201.14451 36.91417,0 73.82833,0 110.7425,0 z m -352.22144,20.24556 c -6.85548,0.15479 -16.53742,-0.93573 -19.44218,7.07369 -3.95422,7.94161 2.29353,19.12303 11.69001,17.53262 24.11733,0.42955 48.42385,1.12629 72.42848,-0.56017 11.31847,-4.09957 8.30161,-24.4233 -4.23319,-23.74599 -20.1509,-0.53285 -40.29366,0.11278 -60.44312,-0.30015 z m 135.60306,0 c -6.85548,0.15479 -16.53742,-0.93573 -19.44218,7.07369 -3.95422,7.94161 2.29353,19.12303 11.69001,17.53262 24.11733,0.42955 48.42385,1.12629 72.42848,-0.56017 11.31847,-4.09957 8.30161,-24.4233 -4.23319,-23.74599 -20.1509,-0.53285 -40.29366,0.11278 -60.44312,-0.30015 z m 135.60306,0 c -6.85548,0.15479 -16.53742,-0.93573 -19.44218,7.07369 -3.95422,7.94161 2.29353,19.12303 11.69001,17.53262 24.11733,0.42955 48.42385,1.12629 72.42848,-0.56017 11.31847,-4.09957 8.30161,-24.4233 -4.23319,-23.74599 -20.1509,-0.53285 -40.29366,0.11278 -60.44312,-0.30015 z m -271.20612,45.20102 c -6.85548,0.15479 -16.53742,-0.93573 -19.44218,7.07369 -3.95422,7.94161 2.29353,19.12303 11.69001,17.53262 24.11733,0.42955 48.42385,1.12629 72.42848,-0.56017 11.31847,-4.09957 8.30161,-24.4233 -4.23319,-23.74599 -20.1509,-0.53285 -40.29366,0.11278 -60.44312,-0.30015 z m 135.60306,0 c -6.85548,0.15479 -16.53742,-0.93573 -19.44218,7.07369 -3.95422,7.94161 2.29353,19.12303 11.69001,17.53262 24.11733,0.42955 48.42385,1.12629 72.42848,-0.56017 11.31847,-4.09957 8.30161,-24.4233 -4.23319,-23.74599 -20.1509,-0.53285 -40.29366,0.11278 -60.44312,-0.30015 z m 135.60306,0 c -6.85548,0.15479 -16.53742,-0.93573 -19.44218,7.07369 -3.95422,7.94161 2.29353,19.12303 11.69001,17.53262 24.11733,0.42955 48.42385,1.12629 72.42848,-0.56017 11.31847,-4.09957 8.30161,-24.4233 -4.23319,-23.74599 -20.1509,-0.53285 -40.29366,0.11278 -60.44312,-0.30015 z m -271.20612,45.20102 c -6.85548,0.15479 -16.53742,-0.93573 -19.44218,7.07369 -3.95422,7.94161 2.29353,19.12303 11.69001,17.53262 24.11733,0.42955 48.42385,1.12629 72.42848,-0.56017 11.31847,-4.09957 8.30161,-24.4233 -4.23319,-23.74599 -20.1509,-0.53285 -40.29366,0.11278 -60.44312,-0.30015 z m 135.60306,0 c -6.85548,0.15479 -16.53742,-0.93573 -19.44218,7.07369 -3.95422,7.94161 2.29353,19.12303 11.69001,17.53262 24.11733,0.42955 48.42385,1.12629 72.42848,-0.56017 11.31847,-4.09957 8.30161,-24.4233 -4.23319,-23.74599 -20.1509,-0.53285 -40.29366,0.11278 -60.44312,-0.30015 z m 135.60306,0 c -6.85548,0.15479 -16.53742,-0.93573 -19.44218,7.07369 -3.95422,7.94161 2.29353,19.12303 11.69001,17.53262 24.11733,0.42955 48.42385,1.12629 72.42848,-0.56017 11.31847,-4.09957 8.30161,-24.4233 -4.23319,-23.74599 -20.1509,-0.53285 -40.29366,0.11278 -60.44312,-0.30015 z m -271.20392,45.20099 c -6.85603,0.15504 -16.53921,-0.9365 -19.44438,7.07374 -3.95422,7.94158 2.29353,19.12298 11.69001,17.53258 24.11733,0.4295 48.42385,1.1263 72.42848,-0.5602 11.31836,-4.0997 8.30158,-24.42327 -4.23319,-23.74598 -20.1502,-0.53475 -40.29215,0.11594 -60.44092,-0.30014 z m 135.60306,0 c -6.85603,0.15504 -16.53921,-0.9365 -19.44438,7.07374 -3.95422,7.94158 2.29353,19.12298 11.69001,17.53258 24.11733,0.4295 48.42385,1.1263 72.42848,-0.5602 11.31836,-4.0997 8.30158,-24.42327 -4.23319,-23.74598 -20.1502,-0.53475 -40.29215,0.11594 -60.44092,-0.30014 z m 135.60306,0 c -6.85603,0.15504 -16.53921,-0.9365 -19.44438,7.07374 -3.95422,7.94158 2.29353,19.12298 11.69001,17.53258 24.11733,0.4295 48.42385,1.1263 72.42848,-0.5602 11.31836,-4.0997 8.30158,-24.42327 -4.23319,-23.74598 -20.1502,-0.53475 -40.29215,0.11594 -60.44092,-0.30014 z"
         style="color:#000000;font-style:normal;font-variant:normal;font-weight:normal;font-stretch:normal;font-size:medium;line-height:normal;font-family:sans-serif;font-variant-ligatures:normal;font-variant-position:normal;font-variant-caps:normal;font-variant-numeric:normal;font-variant-alternates:normal;font-feature-settings:normal;text-indent:0;text-align:start;text-decoration:none;text-decoration-line:none;text-decoration-style:solid;text-decoration-color:#000000;letter-spacing:normal;word-spacing:normal;text-transform:none;writing-mode:lr-tb;direction:ltr;text-orientation:mixed;dominant-baseline:auto;baseline-shift:baseline;text-anchor:start;white-space:normal;shape-padding:0;clip-rule:nonzero;display:inline;overflow:visible;visibility:visible;opacity:1;isolation:auto;mix-blend-mode:normal;color-interpolation:sRGB;color-interpolation-filters:linearRGB;solid-color:#000000;solid-opacity:1;vector-effect:none;fill:#000000;fill-opacity:1;fill-rule:nonzero;stroke:none;stroke-width:10;stroke-linecap:butt;stroke-linejoin:round;stroke-miterlimit:4;stroke-dasharray:none;stroke-dashoffset:0;stroke-opacity:1;color-rendering:auto;image-rendering:auto;shape-rendering:auto;text-rendering:auto;enable-background:accumulate" />
    </g>
  </g>
</svg>
