<?xml version="1.0" encoding="UTF-8" standalone="no"?>
<!-- Created with Inkscape (http://www.inkscape.org/) -->

<svg
   xmlns:dc="http://purl.org/dc/elements/1.1/"
   xmlns:cc="http://creativecommons.org/ns#"
   xmlns:rdf="http://www.w3.org/1999/02/22-rdf-syntax-ns#"
   xmlns:svg="http://www.w3.org/2000/svg"
   xmlns="http://www.w3.org/2000/svg"
   xmlns:sodipodi="http://sodipodi.sourceforge.net/DTD/sodipodi-0.dtd"
   xmlns:inkscape="http://www.inkscape.org/namespaces/inkscape"
   width="500"
   height="500"
   viewBox="0 0 500 500"
   version="1.1"
   id="svg8"
   inkscape:version="0.92.4 (5da689c313, 2019-01-14)"
   sodipodi:docname="tables.svg">
  <defs
     id="defs2" />
  <sodipodi:namedview
     id="base"
     pagecolor="#ffffff"
     bordercolor="#666666"
     borderopacity="1.0"
     inkscape:pageopacity="0.0"
     inkscape:pageshadow="2"
     inkscape:zoom="0.7"
     inkscape:cx="42.406601"
     inkscape:cy="206.20159"
     inkscape:document-units="px"
     inkscape:current-layer="layer1"
     showgrid="true"
     units="px"
     inkscape:window-width="1920"
     inkscape:window-height="1017"
     inkscape:window-x="2987"
     inkscape:window-y="-8"
     inkscape:window-maximized="1"
     inkscape:pagecheckerboard="false">
    <inkscape:grid
       type="xygrid"
       id="grid1358"
       spacingx="20"
       spacingy="20" />
  </sodipodi:namedview>
  <metadata
     id="metadata5">
    <rdf:RDF>
      <cc:Work
         rdf:about="">
        <dc:format>image/svg+xml</dc:format>
        <dc:type
           rdf:resource="http://purl.org/dc/dcmitype/StillImage" />
        <dc:title />
      </cc:Work>
    </rdf:RDF>
  </metadata>
  <g
     inkscape:label="Layer 1"
     inkscape:groupmode="layer"
     id="layer1"
     transform="translate(0,-591.25001)">
    <path
       style="color:#000000;font-style:normal;font-variant:normal;font-weight:normal;font-stretch:normal;font-size:medium;line-height:normal;font-family:sans-serif;font-variant-ligatures:normal;font-variant-position:normal;font-variant-caps:normal;font-variant-numeric:normal;font-variant-alternates:normal;font-feature-settings:normal;text-indent:0;text-align:start;text-decoration:none;text-decoration-line:none;text-decoration-style:solid;text-decoration-color:#000000;letter-spacing:normal;word-spacing:normal;text-transform:none;writing-mode:lr-tb;direction:ltr;text-orientation:mixed;dominant-baseline:auto;baseline-shift:baseline;text-anchor:start;white-space:normal;shape-padding:0;clip-rule:nonzero;display:inline;overflow:visible;visibility:visible;opacity:1;isolation:auto;mix-blend-mode:normal;color-interpolation:sRGB;color-interpolation-filters:linearRGB;solid-color:#000000;solid-opacity:1;vector-effect:none;fill:#000000;fill-opacity:1;fill-rule:nonzero;stroke:none;stroke-width:10;stroke-linecap:butt;stroke-linejoin:round;stroke-miterlimit:4;stroke-dasharray:none;stroke-dashoffset:0;stroke-opacity:1;color-rendering:auto;image-rendering:auto;shape-rendering:auto;text-rendering:auto;enable-background:accumulate"
       d="M 40 35 A 5.0005 5.0005 0 0 0 35 40 L 35 280 A 5.0005 5.0005 0 0 0 40 285 L 100 285 L 100 275 L 45 275 L 45 85 L 155 85 L 155 220 L 165 220 L 165 85 L 275 85 L 275 220 L 285 220 L 285 85 L 395 85 L 395 220 L 405 220 L 405 40 A 5.0005 5.0005 0 0 0 400 35 L 40 35 z M 45 45 L 155 45 L 155 75 L 45 75 L 45 45 z M 165 45 L 275 45 L 275 75 L 165 75 L 165 45 z M 285 45 L 395 45 L 395 75 L 285 75 L 285 45 z M 70 115 A 5.0005 5.0005 0 1 0 70 125 L 130 125 A 5.0005 5.0005 0 1 0 130 115 L 70 115 z M 190 115 A 5.0005 5.0005 0 1 0 190 125 L 250 125 A 5.0005 5.0005 0 1 0 250 115 L 190 115 z M 310 115 A 5.0005 5.0005 0 1 0 310 125 L 370 125 A 5.0005 5.0005 0 1 0 370 115 L 310 115 z M 70 155 A 5.0005 5.0005 0 1 0 70 165 L 130 165 A 5.0005 5.0005 0 1 0 130 155 L 70 155 z M 190 155 A 5.0005 5.0005 0 1 0 190 165 L 250 165 A 5.0005 5.0005 0 1 0 250 155 L 190 155 z M 310 155 A 5.0005 5.0005 0 1 0 310 165 L 370 165 A 5.0005 5.0005 0 1 0 370 155 L 310 155 z M 70 195 A 5.0005 5.0005 0 1 0 70 205 L 130 205 A 5.0005 5.0005 0 1 0 130 195 L 70 195 z M 190 195 A 5.0005 5.0005 0 1 0 190 205 L 250 205 A 5.0005 5.0005 0 1 0 250 195 L 190 195 z M 310 195 A 5.0005 5.0005 0 1 0 310 205 L 370 205 A 5.0005 5.0005 0 1 0 370 195 L 310 195 z M 70 235 A 5.0005 5.0005 0 1 0 70 245 L 100 245 L 100 235 L 70 235 z "
       transform="translate(0,591.25001)"
       id="rect1097" />
    <path
       style="color:#000000;font-style:normal;font-variant:normal;font-weight:normal;font-stretch:normal;font-size:medium;line-height:normal;font-family:sans-serif;font-variant-ligatures:normal;font-variant-position:normal;font-variant-caps:normal;font-variant-numeric:normal;font-variant-alternates:normal;font-feature-settings:normal;text-indent:0;text-align:start;text-decoration:none;text-decoration-line:none;text-decoration-style:solid;text-decoration-color:#000000;letter-spacing:normal;word-spacing:normal;text-transform:none;writing-mode:lr-tb;direction:ltr;text-orientation:mixed;dominant-baseline:auto;baseline-shift:baseline;text-anchor:start;white-space:normal;shape-padding:0;clip-rule:nonzero;display:inline;overflow:visible;visibility:visible;opacity:1;isolation:auto;mix-blend-mode:normal;color-interpolation:sRGB;color-interpolation-filters:linearRGB;solid-color:#000000;solid-opacity:1;vector-effect:none;fill:#000000;fill-opacity:1;fill-rule:nonzero;stroke:none;stroke-width:10;stroke-linecap:butt;stroke-linejoin:round;stroke-miterlimit:4;stroke-dasharray:none;stroke-dashoffset:0;stroke-opacity:1;color-rendering:auto;image-rendering:auto;shape-rendering:auto;text-rendering:auto;enable-background:accumulate"
       d="m 100,806.25004 a 5.0005,5.0005 0 0 0 -5,5 V 1051.25 a 5.0005,5.0005 0 0 0 5,5 h 360 a 5.0005,5.0005 0 0 0 5,-5 V 811.25004 a 5.0005,5.0005 0 0 0 -5,-5 z m 5,10 h 110 v 30 H 105 Z m 120,0 h 110 v 30 H 225 Z m 120,0 h 110 v 30 H 345 Z m -240,40 H 215 V 1046.25 H 105 Z m 120,0 H 335 V 1046.25 H 225 Z m 120,0 H 455 V 1046.25 H 345 Z m -215,30 a 5.0005,5.0005 0 1 0 0,10 h 60 a 5.0005,5.0005 0 1 0 0,-10 z m 120,0 a 5.0005,5.0005 0 1 0 0,10 h 60 a 5.0005,5.0005 0 1 0 0,-10 z m 120,0 a 5.0005,5.0005 0 1 0 0,10 h 60 a 5.0005,5.0005 0 1 0 0,-10 z m -240,40 a 5.0005,5.0005 0 1 0 0,10 h 60 a 5.0005,5.0005 0 1 0 0,-10 z m 120,0 a 5.0005,5.0005 0 1 0 0,10 h 60 a 5.0005,5.0005 0 1 0 0,-10 z m 120,0 a 5.0005,5.0005 0 1 0 0,10 h 60 a 5.0005,5.0005 0 1 0 0,-10 z m -240,40 a 5.0005,5.0005 0 1 0 0,10 h 60 a 5.0005,5.0005 0 1 0 0,-10 z m 120,0 a 5.0005,5.0005 0 1 0 0,10 h 60 a 5.0005,5.0005 0 1 0 0,-10 z m 120,0 a 5.0005,5.0005 0 1 0 0,10 h 60 a 5.0005,5.0005 0 1 0 0,-10 z M 130,1006.25 a 5.0005,5.0005 0 1 0 0,10 h 60 a 5.0005,5.0005 0 1 0 0,-10 z m 120,0 a 5.0005,5.0005 0 1 0 0,10 h 60 a 5.0005,5.0005 0 1 0 0,-10 z m 120,0 a 5.0005,5.0005 0 1 0 0,10 h 60 a 5.0005,5.0005 0 1 0 0,-10 z"
       id="rect1195"
       inkscape:connector-curvature="0" />
  </g>
</svg>
