<?xml version="1.0" encoding="UTF-8" standalone="no"?>
<!-- Created with Inkscape (http://www.inkscape.org/) -->

<svg
   xmlns:dc="http://purl.org/dc/elements/1.1/"
   xmlns:cc="http://creativecommons.org/ns#"
   xmlns:rdf="http://www.w3.org/1999/02/22-rdf-syntax-ns#"
   xmlns:svg="http://www.w3.org/2000/svg"
   xmlns="http://www.w3.org/2000/svg"
   xmlns:sodipodi="http://sodipodi.sourceforge.net/DTD/sodipodi-0.dtd"
   xmlns:inkscape="http://www.inkscape.org/namespaces/inkscape"
   width="500"
   height="500"
   viewBox="0 0 500 500"
   version="1.1"
   id="svg8"
   inkscape:version="0.92.4 (5da689c313, 2019-01-14)"
   sodipodi:docname="text.svg">
  <defs
     id="defs2">
    <marker
       inkscape:stockid="Arrow2Mend"
       orient="auto"
       refY="0.0"
       refX="0.0"
       id="Arrow2Mend"
       style="overflow:visible;"
       inkscape:isstock="true">
      <path
         id="path1558"
         style="fill-rule:evenodd;stroke-width:0.625;stroke-linejoin:round;stroke:#000000;stroke-opacity:1;fill:#000000;fill-opacity:1"
         d="M 8.7185878,4.0337352 L -2.2072895,0.016013256 L 8.7185884,-4.0017078 C 6.9730900,-1.6296469 6.9831476,1.6157441 8.7185878,4.0337352 z "
         transform="scale(0.6) rotate(180) translate(0,0)" />
    </marker>
    <marker
       inkscape:stockid="Arrow1Send"
       orient="auto"
       refY="0.0"
       refX="0.0"
       id="Arrow1Send"
       style="overflow:visible;"
       inkscape:isstock="true">
      <path
         id="path1546"
         d="M 0.0,0.0 L 5.0,-5.0 L -12.5,0.0 L 5.0,5.0 L 0.0,0.0 z "
         style="fill-rule:evenodd;stroke:#000000;stroke-width:1pt;stroke-opacity:1;fill:#000000;fill-opacity:1"
         transform="scale(0.2) rotate(180) translate(6,0)" />
    </marker>
    <marker
       inkscape:stockid="Arrow1Mend"
       orient="auto"
       refY="0.0"
       refX="0.0"
       id="Arrow1Mend"
       style="overflow:visible;"
       inkscape:isstock="true">
      <path
         id="path1540"
         d="M 0.0,0.0 L 5.0,-5.0 L -12.5,0.0 L 5.0,5.0 L 0.0,0.0 z "
         style="fill-rule:evenodd;stroke:#000000;stroke-width:1pt;stroke-opacity:1;fill:#000000;fill-opacity:1"
         transform="scale(0.4) rotate(180) translate(10,0)" />
    </marker>
  </defs>
  <sodipodi:namedview
     id="base"
     pagecolor="#ffffff"
     bordercolor="#666666"
     borderopacity="1.0"
     inkscape:pageopacity="0.0"
     inkscape:pageshadow="2"
     inkscape:zoom="1.4"
     inkscape:cx="67.158276"
     inkscape:cy="207.25713"
     inkscape:document-units="px"
     inkscape:current-layer="layer1"
     showgrid="true"
     units="px"
     inkscape:window-width="3000"
     inkscape:window-height="1890"
     inkscape:window-x="-12"
     inkscape:window-y="-12"
     inkscape:window-maximized="1"
     inkscape:pagecheckerboard="false"
     inkscape:snap-object-midpoints="false"
     inkscape:snap-global="true">
    <inkscape:grid
       type="xygrid"
       id="grid1358"
       spacingx="20"
       spacingy="20" />
  </sodipodi:namedview>
  <metadata
     id="metadata5">
    <rdf:RDF>
      <cc:Work
         rdf:about="">
        <dc:format>image/svg+xml</dc:format>
        <dc:type
           rdf:resource="http://purl.org/dc/dcmitype/StillImage" />
        <dc:title />
      </cc:Work>
    </rdf:RDF>
  </metadata>
  <g
     inkscape:label="Layer 1"
     inkscape:groupmode="layer"
     id="layer1"
     transform="translate(0,-591.25001)">
    <path
       style="fill:#000000;stroke-width:1"
       d="m 43.012004,1083.375 -7.29836,-7.875 V 842.07472 608.64941 l 8.69964,-8.69971 8.69962,-8.6997 H 184.46442 c 87.96644,0 135.96469,1.11816 145.31823,3.38482 12.57569,3.04762 19.64486,9.05 70.97787,60.26786 46.4908,46.38632 57.60905,59.07977 60.25125,68.78781 2.15827,7.92976 3.24568,68.65119 3.25673,181.85715 l 0.0179,169.95236 -7.29837,7.875 -7.29836,7.875 H 250.00062 50.311623 Z M 428.57082,912.6786 V 769.82144 h -62.72894 -62.72896 l -8.69961,-8.6997 -8.69965,-8.6994 V 689.69316 626.96429 H 178.57079 71.427934 V 841.25002 1055.5357 H 249.99937 428.57082 Z m -283.69271,69.48185 c -1.11187,-1.11191 -2.02161,-8.35149 -2.02161,-16.0881 0,-10.08125 1.33375,-14.57827 4.70771,-15.87292 7.22116,-2.77113 201.60225,-2.05476 206.03949,0.75923 2.58273,1.63779 3.58895,7.40804 2.97619,17.06755 l -0.92575,14.59286 -104.37721,0.78155 c -57.40748,0.42976 -105.28694,-0.12798 -106.39882,-1.24017 z m 0,-71.42858 c -1.11187,-1.1119 -2.02161,-8.35149 -2.02161,-16.0881 0,-10.08125 1.33375,-14.57827 4.70771,-15.87292 7.22116,-2.77113 201.60225,-2.05476 206.03949,0.75922 2.58273,1.6378 3.58895,7.40805 2.97619,17.06756 l -0.92575,14.59286 -104.37721,0.78155 c -57.40748,0.42976 -105.28694,-0.12798 -106.39882,-1.24017 z m 0,-71.42858 c -1.11187,-1.1119 -2.02161,-8.35148 -2.02161,-16.08809 0,-10.08125 1.33375,-14.57828 4.70771,-15.87292 7.22116,-2.77113 201.60225,-2.05476 206.03949,0.75923 2.58273,1.63779 3.58895,7.40803 2.97619,17.06756 l -0.92575,14.59286 -104.37721,0.78153 c -57.40748,0.42976 -105.28694,-0.12797 -106.39882,-1.24017 z M 425.59462,730.48692 c 0,-4.72798 -95.81834,-100.54644 -100.54637,-100.54644 -2.70503,0 -3.6203,13.16756 -3.6203,52.08334 v 52.08334 h 52.08334 c 38.91565,0 52.08333,-0.91518 52.08333,-3.62024 z"
       id="path877"
       inkscape:connector-curvature="0" />
  </g>
</svg>
