<?xml version="1.0" encoding="UTF-8" standalone="no"?>
<!-- Created with Inkscape (http://www.inkscape.org/) -->

<svg
   xmlns:dc="http://purl.org/dc/elements/1.1/"
   xmlns:cc="http://creativecommons.org/ns#"
   xmlns:rdf="http://www.w3.org/1999/02/22-rdf-syntax-ns#"
   xmlns:svg="http://www.w3.org/2000/svg"
   xmlns="http://www.w3.org/2000/svg"
   xmlns:sodipodi="http://sodipodi.sourceforge.net/DTD/sodipodi-0.dtd"
   xmlns:inkscape="http://www.inkscape.org/namespaces/inkscape"
   width="500"
   height="500"
   viewBox="0 0 500 500"
   version="1.1"
   id="svg8"
   inkscape:version="0.92.4 (5da689c313, 2019-01-14)"
   sodipodi:docname="wrongWay.svg">
  <defs
     id="defs2" />
  <sodipodi:namedview
     id="base"
     pagecolor="#ffffff"
     bordercolor="#666666"
     borderopacity="1.0"
     inkscape:pageopacity="0.0"
     inkscape:pageshadow="2"
     inkscape:zoom="2"
     inkscape:cx="100.64689"
     inkscape:cy="255.63629"
     inkscape:document-units="px"
     inkscape:current-layer="layer1"
     showgrid="true"
     units="px"
     inkscape:window-width="4480"
     inkscape:window-height="1780"
     inkscape:window-x="6"
     inkscape:window-y="-12"
     inkscape:window-maximized="1"
     inkscape:pagecheckerboard="false"
     inkscape:object-paths="true"
     inkscape:object-nodes="true"
     inkscape:snap-grids="false"
     inkscape:snap-object-midpoints="true">
    <inkscape:grid
       type="xygrid"
       id="grid1358"
       spacingx="20"
       spacingy="20" />
  </sodipodi:namedview>
  <metadata
     id="metadata5">
    <rdf:RDF>
      <cc:Work
         rdf:about="">
        <dc:format>image/svg+xml</dc:format>
        <dc:type
           rdf:resource="http://purl.org/dc/dcmitype/StillImage" />
        <dc:title></dc:title>
      </cc:Work>
    </rdf:RDF>
  </metadata>
  <g
     inkscape:label="Layer 1"
     inkscape:groupmode="layer"
     id="layer1"
     transform="translate(0,-591.25001)">
    <path
       style="fill:#000000;stroke-width:1"
       d="m 112.81998,1084.6161 c -3.64865,-3.6487 -6.63389,-9.0549 -6.63389,-12.0139 0,-6.0829 10.57576,-79.44462 11.53854,-80.04043 0.343,-0.21217 9.35046,-1.68198 20.0166,-3.266 61.7634,-9.17252 112.16487,-60.84698 120.04454,-123.07655 7.80473,-61.6377 -19.89795,-113.4677 -79.79603,-149.29354 -4.14122,-2.47691 -3.60687,-6.87975 6.3963,-52.7027 6.00324,-27.5 11.57073,-52.76743 12.37221,-56.14984 0.80146,-3.3824 3.85873,-8.55132 6.7939,-11.48648 5.09097,-5.09098 9.31097,-5.33665 91.67243,-5.33665 85.69646,0 86.38662,0.0451 93.20433,6.08108 7.53519,6.67124 5.82283,-0.83781 39.28994,172.2973 9.05116,46.82432 19.49549,100.33783 23.20962,118.91892 25.48703,127.50659 35.90768,184.51229 34.47041,188.56909 -0.91081,2.5708 -3.48397,6.8025 -5.71816,9.4039 -3.7923,4.4155 -15.89152,4.7297 -182.14446,4.7297 H 119.4539 Z m 190.09598,-81.5844 c 11.06135,-2.963 14.08095,-13.82699 14.08095,-50.66072 0,-18.55813 -1.1139,-36.67184 -2.47533,-40.25267 -3.61597,-9.51068 -16.8653,-14.36079 -27.3577,-10.01471 -4.51627,1.87071 -9.38114,5.58695 -10.81081,8.25833 -1.42968,2.67138 -2.56073,21.65997 -2.51346,42.19689 0.0887,38.52359 1.10673,42.64932 12.07622,48.94028 6.26213,3.5914 8.54605,3.7973 17.00013,1.5326 z m 7.99987,-164.85353 c 5.29245,-5.82159 6.08108,-9.63224 6.08108,-29.38413 0,-25.41495 -2.93198,-34.46833 -12.58736,-38.86763 -10.05483,-4.58127 -14.15848,-3.69773 -22.75567,4.89949 -7.54216,7.54216 -7.90022,8.98476 -7.90022,31.83105 0,25.58719 3.20614,34.14479 14.47838,38.64468 7.94851,3.17305 15.47062,0.81086 22.68379,-7.12346 z m -0.55284,-118.42695 c 5.59121,-5.59118 6.63392,-9.22132 6.63392,-23.09581 0,-13.87448 -1.04271,-17.50462 -6.63392,-23.09581 -8.7766,-8.77662 -21.19881,-8.77662 -29.97541,0 -5.59121,5.59119 -6.63392,9.22133 -6.63392,23.09581 0,13.87449 1.04271,17.50463 6.63392,23.09581 4.1817,4.18173 9.72184,6.63392 14.9877,6.63392 5.26587,0 10.806,-2.45219 14.98771,-6.63392 z M 87.58247,946.56406 C 65.12547,940.33398 44.495497,925.10498 31.288116,905.00768 -2.1932043,854.06009 16.111956,784.72739 70.292605,757.27431 c 14.33527,-7.2636 17.962676,-7.91476 44.001595,-7.89895 25.60692,0.0162 29.89292,0.75905 43.88646,7.61335 20.56486,10.073 38.96646,28.96251 48.90589,50.20257 6.649,14.20859 8.1406,20.98594 8.32922,37.84559 0.28432,25.41327 -3.99427,40.56795 -16.84111,59.6506 -23.87041,35.457 -70.59165,53.08462 -110.99219,41.87659 z m 17.3767,-58.21716 10.93525,-10.65386 9.01418,9.30027 c 16.67487,17.2041 32.23298,18.32578 42.2449,3.04567 6.06835,-9.26149 3.40929,-18.24581 -9.49444,-32.07927 l -10.4764,-11.23127 11.93416,-12.75857 c 6.56376,-7.01721 11.93414,-15.33665 11.93414,-18.48765 0,-8.07224 -14.26733,-21.52951 -22.82546,-21.52951 -4.47549,0 -11.41708,4.04843 -19.12681,11.15503 l -12.10179,11.15503 -12.10178,-11.15503 c -14.770461,-13.61495 -24.14519,-14.581 -34.689866,-3.5747 -10.916162,11.39402 -9.204027,20.45908 7.121757,37.70662 l 8.330162,8.80048 -11.357162,11.57208 c -15.548054,15.84233 -15.260919,29.84157 0.805,39.24957 8.088756,4.73668 17.659783,1.36568 29.854159,-10.51489 z"
       id="path869"
       inkscape:connector-curvature="0" />
  </g>
</svg>
